<?xml version="1.0" encoding="utf-8"?>
<!-- Generator: Adobe Illustrator 22.1.0, SVG Export Plug-In . SVG Version: 6.00 Build 0)  -->
<svg height="85px" version="1.1" id="Layer_1" xmlns="http://www.w3.org/2000/svg" xmlns:xlink="http://www.w3.org/1999/xlink" x="0px" y="0px"
	 viewBox="0 0 56.6 96.6" style="enable-background:new 0 0 56.6 96.6;" xml:space="preserve">
<style type="text/css">
	.st0{fill:#52AE32;}
	.st1{enable-background:new    ;}
</style>
<title>be_active</title>
<g id="Lager_1">
	<path class="st0" d="M2.3,47.9V17.9l26-14.9l26,14.9v30l-26,15L2.3,47.9z M28.3,0.2L0,16.6v32.7l28.3,16.3l28.3-16.3V16.6L28.3,0.2
		z"/>
	<rect x="33.5" y="15" class="st0" width="6.9" height="2.3"/>
	<rect x="33.5" y="22.7" class="st0" width="6.9" height="2.3"/>
	<rect x="33.5" y="30.5" class="st0" width="6.9" height="2.3"/>
	<path class="st0" d="M19.9,17.4v21.7l-0.3,0.3c-1.2,1.2-2,2.8-2,4.6c0,3.5,2.8,6.3,6.3,6.4s6.3-2.8,6.4-6.3c0-1.9-0.8-3.7-2.2-4.9
		l-0.4-0.3V17.4H19.9z M23.9,52.6c-4.7,0-8.6-3.9-8.6-8.6c0-2.2,0.8-4.3,2.3-5.9v-23H30v22.7c1.7,1.6,2.6,3.9,2.6,6.2
		c0,4.7-3.8,8.6-8.5,8.6c0,0,0,0,0,0H23.9"/>
	<path class="st0" d="M24,41.2c1.6,0,2.8,1.3,2.8,2.9s-1.3,2.8-2.9,2.8c-1.6,0-2.8-1.3-2.8-2.8C21.1,42.4,22.4,41.2,24,41.2
		C24,41.2,24,41.2,24,41.2L24,41.2"/>
	<rect x="22.4" y="34.4" class="st0" width="2.7" height="4.2"/>
	<rect x="22.4" y="27.5" class="st0" width="2.7" height="4.2"/>
	<g class="st1">
		<path class="st0" d="M5.1,84.5v-6.8h3c1.6,0,2,0.3,2,1.7c0,1-0.3,1.4-0.9,1.5v0c0.8,0.1,1.1,0.5,1.1,1.7c0,1.5-0.5,1.8-2,1.8H5.1z
			 M8.3,80.7c0.7,0,1-0.2,1-1.2c0-1-0.3-1.2-1.3-1.2H5.9v2.3H8.3z M8.1,83.8c1.1,0,1.4-0.2,1.4-1.3c0-1-0.3-1.3-1.1-1.3H5.9v2.6H8.1
			z"/>
		<path class="st0" d="M13.2,84.5c-1.6,0-2-0.4-2-2.3v-0.3c0-1.9,0.4-2.3,2-2.3h0.2c1.5,0,1.9,0.4,1.9,2v0.6h-3.3v0.2
			c0,1.3,0.2,1.6,1.3,1.6h0.1c1,0,1.2-0.2,1.2-1v-0.1h0.7V83c0,1.2-0.5,1.6-1.9,1.6H13.2z M14.5,81.7v-0.2c0-1-0.2-1.3-1.2-1.3h-0.1
			c-1.1,0-1.3,0.2-1.3,1.5H14.5z"/>
	</g>
	<g>
		<g class="st1">
			<path class="st0" d="M25.2,84.5h-1.8L23,83.2h-2.5l-0.4,1.3h-1.8l2.2-6.8H23L25.2,84.5z M22.6,81.9l-0.8-2.9h0l-0.9,2.9H22.6z"/>
		</g>
		<g class="st1">
			<path class="st0" d="M28.3,84.5c-2.3,0-2.9-0.6-2.9-3v-1c0-2.3,0.6-3,2.9-3h0.2c2.2,0,2.8,0.5,2.8,2.2v0.3h-1.7v-0.2
				c0-0.6-0.2-0.9-1.1-0.9h-0.1c-1,0-1.2,0.3-1.2,1.6v1c0,1.4,0.3,1.6,1.2,1.6h0.1c0.8,0,1.2-0.2,1.2-1v-0.3h1.7v0.4
				c0,1.7-0.7,2.2-2.8,2.2H28.3z"/>
		</g>
		<g class="st1">
			<path class="st0" d="M35.5,84.5h-1.7V79h-1.9v-1.4h5.5V79h-1.8V84.5z"/>
			<path class="st0" d="M39.8,84.5H38v-6.8h1.7V84.5z"/>
			<path class="st0" d="M44.8,84.5h-2.3l-2.1-6.8h1.8l1.5,5.4h0l1.5-5.4H47L44.8,84.5z"/>
			<path class="st0" d="M52.6,84.5h-5v-6.8h4.9V79h-3.2v1.4h2.9v1.3h-2.9v1.5h3.3V84.5z"/>
		</g>
	</g>
</g>
</svg>
