<?xml version="1.0" encoding="utf-8"?>
<!-- Generator: Adobe Illustrator 22.1.0, SVG Export Plug-In . SVG Version: 6.00 Build 0)  -->
<svg height="85px" version="1.1" id="Layer_1" xmlns="http://www.w3.org/2000/svg" xmlns:xlink="http://www.w3.org/1999/xlink" x="0px" y="0px"
	 viewBox="0 0 69.6 96.6" style="enable-background:new 0 0 69.6 96.6;" xml:space="preserve">
<style type="text/css">
	.st0{enable-background:new    ;}
	.st1{fill:#1D1D1B;}
	.st2{fill:#05171D;}
</style>
<title>bodymapped</title>
<g>
	<g class="st0">
		<path class="st1" d="M0.5,84.5v-6.8h3.5c1.7,0,2.2,0.3,2.2,1.7c0,1-0.2,1.3-1,1.5v0c0.8,0.2,1.1,0.5,1.1,1.6
			c0,1.5-0.6,1.9-2.1,1.9H0.5z M4,80.4c0.5,0,0.6-0.1,0.6-0.7c0-0.6-0.1-0.7-0.6-0.7H2.2v1.5H4z M4,83.2c0.6,0,0.7-0.2,0.7-0.8
			c0-0.6-0.2-0.8-0.7-0.8H2.2v1.6H4z"/>
		<path class="st1" d="M10.2,84.5c-2.4,0-3-0.7-3-3v-1c0-2.3,0.6-3,3-3h0.2c2.4,0,3,0.7,3,3v1c0,2.3-0.6,3-3,3H10.2z M10.4,83.2
			c1,0,1.3-0.3,1.3-1.6v-1c0-1.3-0.2-1.6-1.3-1.6h-0.2c-1,0-1.3,0.3-1.3,1.6v1c0,1.3,0.2,1.6,1.3,1.6H10.4z"/>
	</g>
	<g class="st0">
		<path class="st1" d="M20.6,81.7c0,2.3-0.5,2.8-3.2,2.8h-3v-6.8h3c2.6,0,3.2,0.4,3.2,2.8V81.7z M17.4,83.1c1.3,0,1.5-0.3,1.5-1.6
			v-0.9c0-1.3-0.2-1.5-1.5-1.5h-1.2v4.1H17.4z"/>
	</g>
	<g class="st0">
		<path class="st1" d="M25,84.5h-1.7v-2.2l-2.3-4.6h1.9l1.3,3.1h0l1.3-3.1h1.9L25,82.3V84.5z"/>
		<path class="st1" d="M36.1,84.5h-1.6l0.1-5.3h0l-1.7,5.3h-1.6l-1.7-5.3h0l0.1,5.3h-1.6v-6.8h2.6l1.5,5h0l1.5-5h2.6V84.5z"/>
		<path class="st1" d="M43.7,84.5h-1.8l-0.4-1.3h-2.5l-0.4,1.3h-1.8l2.2-6.8h2.4L43.7,84.5z M41.1,81.9l-0.8-2.9h0l-0.9,2.9H41.1z"
			/>
		<path class="st1" d="M46,84.5h-1.7v-6.8h2.9c2.1,0,2.6,0.4,2.6,2.3v0.4c0,1.9-0.6,2.3-2.5,2.3H46V84.5z M47.1,81.3
			c0.9,0,1-0.2,1-0.9v-0.5c0-0.7-0.2-0.9-1-0.9H46v2.3H47.1z"/>
		<path class="st1" d="M52.5,84.5h-1.7v-6.8h2.9c2.1,0,2.6,0.4,2.6,2.3v0.4c0,1.9-0.6,2.3-2.5,2.3h-1.3V84.5z M53.6,81.3
			c0.9,0,1-0.2,1-0.9v-0.5c0-0.7-0.2-0.9-1-0.9h-1.1v2.3H53.6z"/>
		<path class="st1" d="M62.2,84.5h-5v-6.8h4.9V79h-3.2v1.4h2.9v1.3h-2.9v1.5h3.3V84.5z"/>
		<path class="st1" d="M69.2,81.7c0,2.3-0.5,2.8-3.2,2.8h-3v-6.8h3c2.6,0,3.2,0.4,3.2,2.8V81.7z M66,83.1c1.3,0,1.5-0.3,1.5-1.6
			v-0.9c0-1.3-0.2-1.5-1.5-1.5h-1.2v4.1H66z"/>
	</g>
</g>
<path class="st2" d="M8.9,47.4V17.4l26-14.9L61,17.4v29.9l-26,15L8.9,47.4z M34.9-0.3L6.6,16v32.7l28.3,16.3l28.3-16.3V16L34.9-0.3z
	"/>
<path class="st2" d="M34.3,11.1c2.2-0.6,4.6,1.9,3.6,3.9c-0.5,1.6-2.2,2.4-3.8,1.9c-0.5-0.2-1-0.5-1.3-0.9c-1.1-1.3-0.9-3.3,0.5-4.4
	c0,0,0,0,0,0C33.5,11.4,33.9,11.2,34.3,11.1"/>
<path class="st2" d="M29.5,19.5c2-0.8,4.1-0.4,6.3-0.5c1.8,0,3.9-0.2,5.3,1c1.1,0.9,1.2,2.5,1.2,3.8v8.7c0,0.7-0.2,1.6-1.1,1.6
	c-0.7,0.1-1.4-0.4-1.5-1.2c0-0.2,0-0.3,0-0.5v-8.4h-1v24.2c0.2,2-3.2,2.4-3.4,0.3c-0.1-4.8,0-9.7,0-14.5h-0.7v12.6
	c0,0.9-0.1,1.8-0.4,2.7c-1.1,0.9-3.2,0.4-3.2-1.2c-0.1-8.1,0-16.1,0-24.2h-0.8v8.1c0,0.9-0.4,2.3-1.5,2c-0.7,0.1-1.1-0.7-1-1.3V22.7
	C27.5,21.4,28.2,20.1,29.5,19.5"/>
</svg>
