<svg height="85px" id="Layer_1" data-name="Layer 1" xmlns="http://www.w3.org/2000/svg" viewBox="0 0 56.6 96.7"><defs><style>.cls-1{fill:#1d1d1b;}</style></defs><title>brilliance</title><path d="M28.3,65.6,0,49.28V16.62L28.3.3,56.6,16.62V49.28ZM2.29,48l26,14.91,26-15V17.93L28.3,3l-26,14.91V48Zm26.12,6.64L25.8,40.68,15.56,50.37l6.1-12.74-14,1.85L20,32.73,7.62,26.09l14,1.85-6.1-12.73L25.8,24.9,28.41,11,31,24.9l10.23-9.69L35.16,27.94l14-1.85L36.79,32.84,49.2,39.48l-14-1.85,6.09,12.74L31,40.68Zm-1.09-18.5L28.41,42l1.09-5.87,4.35,4-2.5-5.33,5.88.76L32,32.73l5.23-2.83-6,.87,2.5-5.33-4.35,4L28.3,23.59l-1.09,5.88-4.35-4,2.5,5.33L19.48,30l5.23,2.83-5.23,2.83,5.88-.76-2.5,5.33Z"/><path class="cls-1" d="M.46,84.4V77.6H4c1.67,0,2.19.35,2.19,1.75,0,1-.25,1.35-1,1.51v0c.81.16,1.13.5,1.13,1.64,0,1.48-.6,1.87-2.06,1.87Zm3.42-4.07c.46,0,.62-.11.62-.74s-.15-.74-.62-.74H2.14v1.48Zm0,2.79c.59,0,.73-.18.73-.8s-.17-.8-.73-.8H2.14v1.6Z"/><path class="cls-1" d="M12.88,84.4H11.16v-1c0-1-.18-1.17-1.3-1.17H8.94V84.4H7.24V77.6h3.29c1.93,0,2.34.56,2.34,2v.16c0,1.06-.26,1.59-1,1.74v0c.82.15,1,.47,1,1.76ZM10.15,81c.8,0,1-.19,1-1v-.21c0-.78-.2-.92-1-.92H8.94V81Z"/><path class="cls-1" d="M15.66,84.4H13.92V77.6h1.74Z"/><path class="cls-1" d="M21.23,84.4H16.77V77.6h1.74V83h2.72Z"/><path class="cls-1" d="M26.4,84.4H21.94V77.6h1.74V83H26.4Z"/><path class="cls-1" d="M28.85,84.4H27.1V77.6h1.75Z"/><path class="cls-1" d="M36.38,84.4H34.53l-.38-1.32H31.66l-.38,1.32H29.5l2.21-6.8h2.43Zm-2.61-2.6-.84-3h0l-.86,3Z"/><path class="cls-1" d="M43.5,84.4H41l-2.36-5.3h-.05l.05,5.3H37V77.6h2.57l2.32,5.27H42l-.08-5.27H43.5Z"/><path class="cls-1" d="M47.41,84.48c-2.35,0-2.94-.62-2.94-3v-1c0-2.32.6-3,3-3h.19c2.23,0,2.79.54,2.79,2.19V80H48.71v-.22c0-.6-.19-.93-1.11-.93h-.12c-1,0-1.23.29-1.23,1.61v1c0,1.4.26,1.62,1.21,1.62h.13c.84,0,1.16-.22,1.16-1v-.26h1.68v.41c0,1.71-.67,2.21-2.83,2.21Z"/><path class="cls-1" d="M56.39,84.4h-5V77.6h4.9v1.33H53.13V80.3h2.95v1.26H53.13V83h3.26Z"/></svg>