<?xml version="1.0" encoding="utf-8"?>
<!-- Generator: Adobe Illustrator 22.1.0, SVG Export Plug-In . SVG Version: 6.00 Build 0)  -->
<svg height="85px" version="1.1" id="Layer_1" xmlns="http://www.w3.org/2000/svg" xmlns:xlink="http://www.w3.org/1999/xlink" x="0px" y="0px"
	 viewBox="0 0 72.5 97.1" style="enable-background:new 0 0 72.5 97.1;" xml:space="preserve">
<style type="text/css">
	.st0{enable-background:new    ;}
	.st1{fill:#1D1D1B;}
	.st2{fill:#05171D;}
</style>
<title>compression</title>
<g id="Lager_1">
	<g class="st0">
		<path class="st1" d="M3.4,84.5c-2.3,0-2.9-0.6-2.9-3v-1c0-2.3,0.6-3,2.9-3h0.2c2.2,0,2.8,0.5,2.8,2.2v0.3H4.7v-0.2
			c0-0.6-0.2-0.9-1.1-0.9H3.4c-1,0-1.2,0.3-1.2,1.6v1c0,1.4,0.3,1.6,1.2,1.6h0.1c0.8,0,1.2-0.2,1.2-1v-0.3h1.7v0.4
			c0,1.7-0.7,2.2-2.8,2.2H3.4z"/>
		<path class="st1" d="M10.2,84.5c-2.4,0-3-0.7-3-3v-1c0-2.3,0.6-3,3-3h0.2c2.4,0,3,0.7,3,3v1c0,2.3-0.6,3-3,3H10.2z M10.4,83.2
			c1,0,1.3-0.3,1.3-1.6v-1c0-1.3-0.2-1.6-1.3-1.6h-0.2c-1,0-1.3,0.3-1.3,1.6v1c0,1.3,0.2,1.6,1.3,1.6H10.4z"/>
		<path class="st1" d="M22.7,84.5h-1.6l0.1-5.3h0l-1.7,5.3h-1.6l-1.7-5.3h0l0.1,5.3h-1.6v-6.8h2.6l1.5,5h0l1.5-5h2.6V84.5z"/>
		<path class="st1" d="M25.5,84.5h-1.7v-6.8h2.9c2.1,0,2.6,0.4,2.6,2.3v0.4c0,1.9-0.6,2.3-2.5,2.3h-1.3V84.5z M26.6,81.3
			c0.9,0,1-0.2,1-0.9v-0.5c0-0.7-0.2-0.9-1-0.9h-1.1v2.3H26.6z"/>
		<path class="st1" d="M35.9,84.5h-1.7v-1c0-1-0.2-1.2-1.3-1.2H32v2.1h-1.7v-6.8h3.3c1.9,0,2.3,0.6,2.3,2v0.2c0,1.1-0.3,1.6-1,1.7v0
			c0.8,0.1,1,0.5,1,1.8V84.5z M33.2,81.1c0.8,0,1-0.2,1-1v-0.2c0-0.8-0.2-0.9-1-0.9H32v2.1H33.2z"/>
		<path class="st1" d="M41.9,84.5h-5v-6.8h4.9V79h-3.2v1.4h2.9v1.3h-2.9v1.5h3.3V84.5z"/>
		<path class="st1" d="M48.4,82.5c0,1.5-0.6,2-2.4,2h-0.3c-2.7,0-3-0.3-3-1.9v-0.3h1.6v0.2c0,0.5,0.2,0.7,1.2,0.7h0.2
			c0.9,0,1-0.2,1-0.7v-0.1c0-0.5-0.1-0.7-1.5-0.8c-2.2-0.1-2.6-0.7-2.6-2.1v-0.2c0-1.3,0.5-1.8,2.5-1.8h0.3c2.4,0,2.7,0.5,2.7,1.8
			v0.3h-1.6v-0.2c0-0.4-0.1-0.6-1.1-0.6h-0.2c-0.8,0-1,0.1-1,0.6v0.1c0,0.5,0.1,0.6,1.5,0.7c2.2,0.2,2.6,0.6,2.6,2V82.5z"/>
		<path class="st1" d="M55,82.5c0,1.5-0.6,2-2.4,2h-0.3c-2.7,0-3-0.3-3-1.9v-0.3h1.6v0.2c0,0.5,0.2,0.7,1.2,0.7h0.2
			c0.9,0,1-0.2,1-0.7v-0.1c0-0.5-0.1-0.7-1.5-0.8c-2.2-0.1-2.6-0.7-2.6-2.1v-0.2c0-1.3,0.5-1.8,2.5-1.8H52c2.4,0,2.7,0.5,2.7,1.8
			v0.3h-1.6v-0.2c0-0.4-0.1-0.6-1.1-0.6h-0.2c-0.8,0-1,0.1-1,0.6v0.1c0,0.5,0.1,0.6,1.5,0.7c2.2,0.2,2.6,0.6,2.6,2V82.5z"/>
		<path class="st1" d="M57.7,84.5h-1.7v-6.8h1.7V84.5z"/>
		<path class="st1" d="M61.7,84.5c-2.4,0-3-0.7-3-3v-1c0-2.3,0.6-3,3-3h0.2c2.4,0,3,0.7,3,3v1c0,2.3-0.6,3-3,3H61.7z M61.9,83.2
			c1,0,1.3-0.3,1.3-1.6v-1c0-1.3-0.2-1.6-1.3-1.6h-0.2c-1,0-1.3,0.3-1.3,1.6v1c0,1.3,0.2,1.6,1.3,1.6H61.9z"/>
		<path class="st1" d="M72.4,84.5h-2.5l-2.4-5.3h0l0,5.3h-1.6v-6.8h2.6l2.3,5.3h0l-0.1-5.3h1.6V84.5z"/>
	</g>
	<path class="st2" d="M10.3,48.3l26.1,15l26.1-15.1V18.2l-26.1-15l-26.1,15L10.3,48.3z M36.5,66.1L8,49.7V16.9L36.5,0.5l28.4,16.4
		v32.8L36.5,66.1z"/>
	<path class="st2" d="M18.1,36.2h6.8V41l7.7-7.8l-7.6-7.8v4.9h-6.8V36.2z M22.6,46.6v-8.1h-6.8V28h6.8v-8.2l13.3,13.5L22.6,46.6z"/>
	<path class="st2" d="M40.3,33.3l7.6,7.7v-4.8h6.8v-5.8h-6.8v-4.9L40.3,33.3z M50.3,46.6L37,33.3l13.2-13.3v8.2H57v10.5h-6.8v8
		L50.3,46.6z"/>
</g>
</svg>
