<svg height="85px" id="Layer_1" data-name="Layer 1" xmlns="http://www.w3.org/2000/svg" viewBox="0 0 56.9 96.6"><defs><style>.cls-1{fill:#1d1d1b;}</style></defs><title>durable</title><path class="cls-1" d="M12.33,81.38c0,2.34-.46,2.82-3.19,2.82h-3V77.4h3c2.59,0,3.19.42,3.19,2.76ZM9.07,82.84c1.27,0,1.5-.26,1.5-1.61v-1c0-1.3-.23-1.55-1.5-1.55H7.9v4.11Z"/><path class="cls-1" d="M16.16,84.28c-2.38,0-2.86-.49-2.86-2.43V77.4h1.75v4.28c0,1,.14,1.22,1.13,1.22h.15c1,0,1.14-.18,1.14-1.22V77.4h1.75v4.45c0,1.94-.47,2.43-2.87,2.43Z"/><path class="cls-1" d="M26,84.2H24.23v-1c0-1-.18-1.17-1.3-1.17H22V84.2H20.3V77.4h3.3c1.93,0,2.34.56,2.34,2v.16c0,1.06-.26,1.59-1,1.74v0c.82.15,1,.47,1,1.76Zm-2.73-3.4c.8,0,1-.19,1-1v-.21c0-.78-.2-.92-1-.92H22V80.8Z"/><path class="cls-1" d="M33.41,84.2H31.56l-.38-1.32H28.69l-.38,1.32H26.52l2.22-6.8h2.43ZM30.8,81.6,30,78.65h-.05l-.86,2.95Z"/><path class="cls-1" d="M34.05,84.2V77.4h3.52c1.67,0,2.19.35,2.19,1.75,0,1-.25,1.35-1,1.51v0c.81.16,1.13.5,1.13,1.64,0,1.48-.6,1.87-2.06,1.87Zm3.43-4.07c.46,0,.62-.11.62-.74s-.15-.74-.62-.74H35.74v1.48Zm0,2.79c.59,0,.73-.18.73-.8s-.17-.8-.73-.8H35.74v1.6Z"/><path class="cls-1" d="M45.3,84.2H40.83V77.4h1.75v5.43H45.3Z"/><path class="cls-1" d="M51,84.2H46V77.4h4.9v1.33H47.74V80.1h2.95v1.26H47.74v1.48H51Z"/><path d="M28.45,65.78,0,49.34V16.46L28.45,0,57,16.46V49.34ZM2.25,48l26.2,15,26.2-15.12V17.77l-26.2-15-26.2,15V48ZM29.11,13.5a6.9,6.9,0,0,1,6.79,6.79v6.14a6.62,6.62,0,0,1-4.49,6.25V28.73a3.29,3.29,0,0,0,1.1-2.41V20.18A3.28,3.28,0,0,0,29.22,17h-.77a3.21,3.21,0,0,0-3.29,3.17v6.14a3.07,3.07,0,0,0,.88,2.2v4.05a6.8,6.8,0,0,1-4.39-6.25V20.18a6.64,6.64,0,0,1,6.69-6.68ZM31.3,33.56a6.42,6.42,0,0,1,4.38,6.36v6.13A6.64,6.64,0,0,1,29,52.74h-.77a6.65,6.65,0,0,1-6.69-6.69V39.92a6.79,6.79,0,0,1,4.39-6.25v4a3.07,3.07,0,0,0-.88,2.2v6.13a3.28,3.28,0,0,0,3.29,3.18h.77a3.21,3.21,0,0,0,3.29-3.18V39.92a3.15,3.15,0,0,0-1.1-2.42V33.56ZM30.53,37v3.83H26.7v-16h3.83Z"/></svg>