<?xml version="1.0" encoding="utf-8"?>
<!-- Generator: Adobe Illustrator 22.1.0, SVG Export Plug-In . SVG Version: 6.00 Build 0)  -->
<svg height="85px" version="1.1" id="Layer_1" xmlns="http://www.w3.org/2000/svg" xmlns:xlink="http://www.w3.org/1999/xlink" x="0px" y="0px"
	 viewBox="0 0 56.6 96.8" style="enable-background:new 0 0 56.6 96.8;" xml:space="preserve">
<style type="text/css">
	.st0{enable-background:new    ;}
	.st1{fill:#E0005B;}
</style>
<title>keep_warm</title>
<g id="Lager_1">
	<g>
		<g class="st0">
			<path class="st1" d="M6.7,84.4H5.6l-2.8-3.1H2.1v3.1H1.3v-6.8h0.8v3h0.8l2.7-3h1l-3,3.3L6.7,84.4z"/>
		</g>
		<g class="st0">
			<path class="st1" d="M9.1,84.5c-1.6,0-2-0.4-2-2.3v-0.3c0-1.9,0.4-2.3,2-2.3h0.2c1.5,0,1.9,0.4,1.9,2v0.6H7.9v0.2
				c0,1.3,0.2,1.6,1.3,1.6h0.1c1,0,1.2-0.2,1.2-1v-0.1h0.7v0.1c0,1.2-0.5,1.6-1.9,1.6H9.1z M10.5,81.6v-0.2c0-1-0.2-1.3-1.2-1.3H9.1
				c-1.1,0-1.3,0.2-1.3,1.5H10.5z"/>
			<path class="st1" d="M14.2,84.5c-1.6,0-2-0.4-2-2.3v-0.3c0-1.9,0.4-2.3,2-2.3h0.2c1.5,0,1.9,0.4,1.9,2v0.6h-3.3v0.2
				c0,1.3,0.2,1.6,1.3,1.6h0.1c1,0,1.2-0.2,1.2-1v-0.1h0.7v0.1c0,1.2-0.5,1.6-1.9,1.6H14.2z M15.5,81.6v-0.2c0-1-0.2-1.3-1.2-1.3
				h-0.1c-1.1,0-1.3,0.2-1.3,1.5H15.5z"/>
			<path class="st1" d="M19.7,84.5c-0.9,0-1.3-0.2-1.5-0.7h0v2.4h-0.8v-6.5h0.8v0.6h0c0.2-0.5,0.6-0.7,1.5-0.7h0.1
				c1.4,0,1.8,0.5,1.8,2.3v0.2C21.6,84,21.2,84.5,19.7,84.5L19.7,84.5z M19.6,83.9c1,0,1.3-0.3,1.3-1.7v-0.3c0-1.4-0.2-1.7-1.3-1.7
				h-0.1c-1,0-1.3,0.3-1.3,1.6v0.6c0,1.3,0.3,1.6,1.3,1.6H19.6z"/>
		</g>
	</g>
	<g>
		<g class="st0">
			<path class="st1" d="M32.5,84.4h-2.1l-1-5.2h0l-1,5.2h-2.1l-1.5-6.8h1.7l0.8,5.4h0l1.1-5.4h1.9l1.1,5.4h0l0.8-5.4H34L32.5,84.4z"
				/>
		</g>
		<g class="st0">
			<path class="st1" d="M40.7,84.4h-1.8l-0.4-1.3h-2.5l-0.4,1.3h-1.8l2.2-6.8h2.4L40.7,84.4z M38,81.8l-0.8-2.9h0l-0.9,2.9H38z"/>
			<path class="st1" d="M46.9,84.4h-1.7v-1c0-1-0.2-1.2-1.3-1.2H43v2.1h-1.7v-6.8h3.3c1.9,0,2.3,0.6,2.3,2v0.2c0,1.1-0.3,1.6-1,1.7
				v0c0.8,0.1,1,0.5,1,1.8V84.4z M44.2,81c0.8,0,1-0.2,1-1v-0.2c0-0.8-0.2-0.9-1-0.9H43V81H44.2z"/>
			<path class="st1" d="M56.2,84.4h-1.6l0.1-5.3h0l-1.7,5.3h-1.6l-1.7-5.3h0l0.1,5.3H48v-6.8h2.6l1.5,5h0l1.5-5h2.6V84.4z"/>
		</g>
	</g>
	<path class="st1" d="M2.3,47.9V17.9l26-14.9l26,14.9v30l-26,15L2.3,47.9z M28.3,0.2L0,16.5v32.7l28.3,16.3l28.3-16.3V16.5L28.3,0.2
		z"/>
	<rect x="33.5" y="15" class="st1" width="6.9" height="2.3"/>
	<rect x="33.5" y="22.6" class="st1" width="6.9" height="2.3"/>
	<rect x="33.5" y="30.5" class="st1" width="6.9" height="2.3"/>
	<path class="st1" d="M19.9,17.4v21.7l-0.3,0.3c-1.2,1.2-2,2.8-2,4.6c0,3.5,2.8,6.3,6.3,6.4s6.3-2.8,6.4-6.3c0-1.9-0.8-3.7-2.2-4.9
		l-0.4-0.3V17.4H19.9z M24,52.6c-4.8,0-8.6-3.9-8.6-8.7c0-2.2,0.8-4.2,2.3-5.8v-23H30v22.7c1.7,1.6,2.6,3.9,2.6,6.2
		C32.6,48.7,28.8,52.6,24,52.6C24.1,52.6,24.1,52.6,24,52.6L24,52.6"/>
	<path class="st1" d="M24,41.2c1.6,0,2.8,1.3,2.8,2.9s-1.3,2.8-2.9,2.8c-1.6,0-2.8-1.3-2.8-2.9C21.1,42.4,22.4,41.2,24,41.2L24,41.2
		"/>
	<rect x="22.4" y="34.4" class="st1" width="2.7" height="4.2"/>
	<rect x="22.4" y="27.4" class="st1" width="2.7" height="4.2"/>
	<rect x="22.4" y="20.5" class="st1" width="2.7" height="4.2"/>
</g>
</svg>
