<?xml version="1.0" encoding="utf-8"?>
<!-- Generator: Adobe Illustrator 22.1.0, SVG Export Plug-In . SVG Version: 6.00 Build 0)  -->
<svg height="85px" version="1.1" id="Layer_1" xmlns="http://www.w3.org/2000/svg" xmlns:xlink="http://www.w3.org/1999/xlink" x="0px" y="0px"
	 viewBox="0 0 64.4 96.6" style="enable-background:new 0 0 64.4 96.6;" xml:space="preserve">
<style type="text/css">
	.st0{enable-background:new    ;}
	.st1{fill:#1D1D1B;}
</style>
<title>lightweight</title>
<g id="Lager_1">
	<g class="st0">
		<path class="st1" d="M4.3,84.5h-4.5v-6.8h1.7v5.4h2.7V84.5z"/>
		<path class="st1" d="M6.7,84.5H5v-6.8h1.7V84.5z"/>
		<path class="st1" d="M10.7,84.5c-2.4,0-2.9-0.6-2.9-3v-1c0-2.3,0.6-2.9,2.9-2.9h0.2c2.1,0,2.8,0.5,2.8,2.1v0.2H12v-0.1
			c0-0.6-0.2-0.8-1.1-0.8h-0.1c-1,0-1.2,0.3-1.2,1.6v1c0,1.3,0.2,1.6,1.2,1.6h0.1c1,0,1.2-0.2,1.2-1V82h-1.4v-1.3h3.1V82
			c0,2-0.6,2.5-2.8,2.5H10.7z"/>
		<path class="st1" d="M20.6,84.5h-1.7v-2.7h-2.4v2.7h-1.7v-6.8h1.7v2.6h2.4v-2.6h1.7V84.5z"/>
		<path class="st1" d="M24.8,84.5h-1.7V79h-1.9v-1.4h5.5V79h-1.8V84.5z"/>
		<path class="st1" d="M34.8,84.5h-2.1l-1-5.2h0l-1,5.2h-2.1l-1.5-6.8h1.7l0.8,5.4h0l1.1-5.4h1.9l1.1,5.4h0l0.8-5.4h1.7L34.8,84.5z"
			/>
		<path class="st1" d="M41.9,84.5h-5v-6.8h4.9V79h-3.2v1.4h2.9v1.3h-2.9v1.5h3.3V84.5z"/>
		<path class="st1" d="M44.5,84.5h-1.7v-6.8h1.7V84.5z"/>
		<path class="st1" d="M48.4,84.5c-2.4,0-2.9-0.6-2.9-3v-1c0-2.3,0.6-2.9,2.9-2.9h0.2c2.1,0,2.8,0.5,2.8,2.1v0.2h-1.7v-0.1
			c0-0.6-0.2-0.8-1.1-0.8h-0.1c-1,0-1.2,0.3-1.2,1.6v1c0,1.3,0.2,1.6,1.2,1.6h0.1c1,0,1.2-0.2,1.2-1V82h-1.4v-1.3h3.1V82
			c0,2-0.6,2.5-2.8,2.5H48.4z"/>
		<path class="st1" d="M58.3,84.5h-1.7v-2.7h-2.4v2.7h-1.7v-6.8h1.7v2.6h2.4v-2.6h1.7V84.5z"/>
		<path class="st1" d="M62.6,84.5h-1.7V79H59v-1.4h5.5V79h-1.8V84.5z"/>
	</g>
	<path class="st1" d="M4.9,47.4V17.5L30.7,2.7l25.9,14.8v29.8l-25.9,15L4.9,47.4z M30.7,0L2.6,16.2v32.5L30.7,65l28.2-16.3V16.2
		L30.7,0z"/>
	<path class="st1" d="M30.7,39.1L25,35.4c0.2,1,0.3,1.8,0.5,2.6l5.2,3.4l6-3.8c0.2-0.9,0.3-1.7,0.5-2.6L30.7,39.1z"/>
	<path class="st1" d="M30.7,35l-6.6-4.1c0.1,0.8,0.2,1.7,0.4,2.5l6.2,3.9l6.8-4.3c0.1-0.9,0.2-1.6,0.3-2.5L30.7,35z"/>
	<path class="st1" d="M30.7,30.9L24,26.6L23.8,27c0,0.6,0.1,1.3,0.1,2l6.7,4.3l7.5-4.7c0.1-0.8,0.1-1.6,0.2-2.4L30.7,30.9z"/>
	<path class="st1" d="M38.2,22l-7.5,4.8L24,22.5l-0.2,0.3c0,0.5-0.1,1.2-0.1,1.7l7,4.4l7.7-4.8C38.2,23.4,38.2,22.7,38.2,22"/>
	<path class="st1" d="M38,20.4c-0.1-0.8-0.3-1.4-0.4-2l-6.8,4.2l-6.2-4c-0.2,0.7-0.4,1.4-0.4,2.1l6.7,4.2L38,20.4z"/>
	<path class="st1" d="M37,16.9c-0.2-0.6-0.5-1.3-0.8-1.9l-5.5,3.5l-5-3.1c-0.2,0.5-0.5,1.2-0.8,1.8l5.7,3.7L37,16.9z"/>
	<path class="st1" d="M30.7,43.1l-4.9-3c0.6,2.7,1.2,4.4,1.2,4.4l-0.1,0.2l2.6,1.6l-1.7,2.1H29v6.7h3.4v-6.8h1.2l-1.8-2.3l2.9-1.8
		c0.1-0.4,0.7-2.3,1.3-4.8L30.7,43.1z"/>
	<path class="st1" d="M31.1,16.2l4.1-2.5c-0.2-0.9-0.8-1.6-1.5-2.2l-2.4,1.6l0.5-2.4c-0.2,0-0.5-0.1-0.9-0.1c-1.2,0-2.4,0.5-3.1,1.4
		c0,0.1-0.1,0.1-0.2,0.2c-0.3,0.4-0.6,0.8-0.8,1.3L31.1,16.2z"/>
</g>
</svg>
