<svg height="85px" id="Layer_1" data-name="Layer 1" xmlns="http://www.w3.org/2000/svg" viewBox="0 0 70.11 96.6"><defs><style>.cls-1{fill:#1d1d1b;}</style></defs><title>lowsupport</title><path d="M35.05,65.78,6.56,49.34V16.46L35.05,0l28.5,16.44v32.9ZM8.87,48,35.05,63,61.26,47.88V17.77l-26.21-15-26.19,15Zm26.3-9.32a5.92,5.92,0,1,1,5.92-5.92h0a5.9,5.9,0,0,1-5.86,5.92Zm0-8.55a2.52,2.52,0,1,0,2.52,2.52A2.56,2.56,0,0,0,35.17,30.13Zm15.24,8.58a5.92,5.92,0,1,1,5.92-5.92h0a5.9,5.9,0,0,1-5.86,5.92Zm0-8.55a2.52,2.52,0,1,0,2.52,2.52A2.64,2.64,0,0,0,50.41,30.16Zm-30.47-3.4A5.92,5.92,0,1,1,14,32.68h0a5.89,5.89,0,0,1,5.85-5.92Z"/><path class="cls-1" d="M4.47,84.2H0V77.4H1.75v5.43H4.47Z"/><path class="cls-1" d="M8.07,84.28c-2.44,0-3-.71-3-3v-1c0-2.26.59-3,3-3H8.3c2.44,0,3,.71,3,3v1c0,2.26-.59,3-3,3Zm.2-1.38c1,0,1.28-.3,1.28-1.62v-1c0-1.32-.25-1.62-1.28-1.62H8.1c-1,0-1.28.3-1.28,1.62v1c0,1.32.25,1.62,1.28,1.62Z"/><path class="cls-1" d="M19.71,84.2H17.56l-1-5.16h0l-1,5.16H13.35l-1.47-6.8h1.75l.85,5.37h0l1.06-5.37h1.94l1.07,5.37h0l.84-5.37h1.7Z"/><path class="cls-1" d="M30.46,82.25c0,1.54-.6,2-2.45,2h-.27c-2.67,0-3-.34-3-1.9V82h1.63v.25c0,.55.21.69,1.23.69h.19c.87,0,1-.16,1-.66v-.12c0-.49-.14-.71-1.49-.8-2.2-.15-2.56-.66-2.56-2.06v-.16c0-1.32.5-1.85,2.49-1.85h.31c2.39,0,2.74.46,2.74,1.81v.31H28.66v-.23c0-.42-.14-.6-1.06-.6h-.22c-.82,0-1,.12-1,.58v.13c0,.46.12.61,1.48.73,2.2.2,2.59.62,2.59,2Z"/><path class="cls-1" d="M34.25,84.28c-2.38,0-2.86-.49-2.86-2.43V77.4h1.75v4.28c0,1,.14,1.22,1.13,1.22h.15c1,0,1.14-.18,1.14-1.22V77.4h1.75v4.45c0,1.94-.47,2.43-2.87,2.43Z"/><path class="cls-1" d="M40.1,84.2H38.39V77.4h3c2.09,0,2.63.42,2.63,2.27v.41c0,1.87-.61,2.27-2.55,2.27H40.1ZM41.23,81c.87,0,1-.22,1-.92v-.45c0-.75-.17-.94-1-.94H40.1V81Z"/><path class="cls-1" d="M46.54,84.2H44.83V77.4h3c2.09,0,2.63.42,2.63,2.27v.41c0,1.87-.61,2.27-2.55,2.27H46.54ZM47.67,81c.87,0,1-.22,1-.92v-.45c0-.75-.17-.94-1-.94H46.54V81Z"/><path class="cls-1" d="M54.17,84.28c-2.44,0-3-.71-3-3v-1c0-2.26.59-3,3-3h.23c2.44,0,3,.71,3,3v1c0,2.26-.59,3-3,3Zm.2-1.38c1,0,1.28-.3,1.28-1.62v-1c0-1.32-.25-1.62-1.28-1.62H54.2c-1,0-1.28.3-1.28,1.62v1c0,1.32.25,1.62,1.28,1.62Z"/><path class="cls-1" d="M64.05,84.2H62.33v-1c0-1-.18-1.17-1.3-1.17h-.92V84.2H58.4V77.4h3.3c1.93,0,2.34.56,2.34,2v.16c0,1.06-.26,1.59-1,1.74h0c.82.15,1,.47,1,1.76Zm-2.73-3.4c.8,0,1-.19,1-1v-.21c0-.78-.2-.92-1-.92h-1.2V80.8Z"/><path class="cls-1" d="M68.26,84.2H66.51V78.76H64.65V77.4h5.46v1.36H68.26Z"/></svg>