<svg height="85px" id="Layer_1" data-name="Layer 1" xmlns="http://www.w3.org/2000/svg" viewBox="0 0 89.71 96.6"><defs><style>.cls-1{fill:#1d1d1b;}</style></defs><title>mediumsupport</title><path d="M73.36,16.4V49.29L44.86,65.73,16.36,49.29V16.4L44.86,0ZM44.86,63l26.2-15V17.83L44.86,2.7l-26.2,15V48ZM45,26.82a5.92,5.92,0,1,1-5.92,5.92A5.89,5.89,0,0,1,45,26.82Zm-15.24,0a5.92,5.92,0,1,1-5.92,5.92,5.89,5.89,0,0,1,5.92-5.92Zm30.47,0a5.92,5.92,0,1,1-5.92,5.92,5.89,5.89,0,0,1,5.92-5.92Zm0,8.55a2.55,2.55,0,0,0,2.52-2.52,2.52,2.52,0,1,0-2.52,2.52Z"/><path class="cls-1" d="M8.45,84.76H6.81l.06-5.33h0L5.11,84.76H3.52l-1.7-5.33h0l.06,5.33H.21V78H2.84l1.49,5h0l1.49-5h2.6Z"/><path class="cls-1" d="M14.55,84.76h-5V78h4.9v1.33H11.29v1.37h3v1.26h-3V83.4h3.26Z"/><path class="cls-1" d="M21.58,81.94c0,2.34-.46,2.82-3.19,2.82h-3V78h3c2.59,0,3.19.42,3.19,2.76ZM18.32,83.4c1.27,0,1.5-.26,1.5-1.61v-1c0-1.3-.23-1.55-1.5-1.55H17.15V83.4Z"/><path class="cls-1" d="M24.32,84.76H22.57V78h1.75Z"/><path class="cls-1" d="M28.26,84.84c-2.38,0-2.86-.49-2.86-2.43V78h1.75v4.28c0,1,.14,1.22,1.13,1.22h.15c1,0,1.14-.18,1.14-1.22V78h1.75v4.45c0,1.94-.47,2.43-2.87,2.43Z"/><path class="cls-1" d="M40.64,84.76H39l.06-5.33h0L37.3,84.76H35.71L34,79.43h0L34,84.76H32.4V78H35l1.49,5h0L38,78h2.6Z"/><path class="cls-1" d="M49.85,82.81c0,1.54-.6,2-2.45,2h-.27c-2.67,0-3-.34-3-1.9v-.35h1.63v.25c0,.55.21.69,1.23.69h.19c.87,0,1-.16,1-.66v-.12c0-.49-.14-.71-1.49-.8-2.2-.15-2.56-.66-2.56-2.06v-.16c0-1.32.5-1.85,2.49-1.85h.31c2.39,0,2.74.46,2.74,1.81V80H48.05v-.23c0-.42-.14-.6-1.06-.6h-.22c-.82,0-1,.12-1,.58v.13c0,.46.12.61,1.48.73,2.2.2,2.59.62,2.59,2Z"/><path class="cls-1" d="M53.64,84.84c-2.38,0-2.86-.49-2.86-2.43V78h1.75v4.28c0,1,.14,1.22,1.13,1.22h.15c1,0,1.14-.18,1.14-1.22V78H56.7v4.45c0,1.94-.47,2.43-2.87,2.43Z"/><path class="cls-1" d="M59.49,84.76H57.78V78h2.95c2.09,0,2.63.42,2.63,2.27v.41c0,1.87-.61,2.27-2.55,2.27H59.49Zm1.13-3.18c.87,0,1-.22,1-.92v-.45c0-.75-.17-.94-1-.94H59.49v2.31Z"/><path class="cls-1" d="M65.93,84.76H64.22V78h3c2.09,0,2.63.42,2.63,2.27v.41c0,1.87-.61,2.27-2.55,2.27H65.93Zm1.13-3.18c.87,0,1-.22,1-.92v-.45c0-.75-.17-.94-1-.94H65.93v2.31Z"/><path class="cls-1" d="M73.56,84.84c-2.44,0-3-.71-3-3v-1c0-2.26.59-3,3-3h.23c2.44,0,3,.71,3,3v1c0,2.26-.59,3-3,3Zm.2-1.38c1,0,1.28-.3,1.28-1.62v-1c0-1.32-.25-1.62-1.28-1.62h-.17c-1,0-1.28.3-1.28,1.62v1c0,1.32.25,1.62,1.28,1.62Z"/><path class="cls-1" d="M83.44,84.76H81.72v-1c0-1-.18-1.17-1.3-1.17H79.5v2.13H77.79V78h3.3c1.93,0,2.34.56,2.34,2v.16c0,1.06-.26,1.59-1,1.74v0c.82.15,1,.47,1,1.76Zm-2.73-3.4c.8,0,1-.19,1-1v-.21c0-.78-.2-.92-1-.92H79.5v2.09Z"/><path class="cls-1" d="M87.65,84.76H85.9V79.32H84V78H89.5v1.36H87.65Z"/></svg>