<svg height="85px" xmlns="http://www.w3.org/2000/svg" viewBox="0 0 59.31 94.9"><defs><style>.cls-1{fill:#1d1d1b;}</style></defs><title>moist_transp</title><g id="Lager_1" data-name="Lager 1"><path class="cls-1" d="M14.72,84.54H13.08l.06-5.33h0l-1.72,5.33H9.79L8.1,79.21h0l.06,5.33H6.49v-6.8H9.12l1.48,5h0l1.49-5h2.6Z" transform="translate(-3.08 -0.22)"/><path class="cls-1" d="M18.73,84.62c-2.44,0-3-.71-3-3v-1c0-2.26.59-3,3-3H19c2.43,0,3,.71,3,3v1c0,2.26-.59,3-3,3Zm.19-1.38c1,0,1.28-.3,1.28-1.62v-1C20.2,79.32,20,79,18.92,79h-.17c-1,0-1.27.3-1.27,1.62v1c0,1.32.25,1.62,1.27,1.62Z" transform="translate(-3.08 -0.22)"/><path class="cls-1" d="M24.71,84.54H23v-6.8h1.75Z" transform="translate(-3.08 -0.22)"/><path class="cls-1" d="M31.42,82.59c0,1.54-.6,2-2.45,2h-.26c-2.67,0-3-.34-3-1.9v-.35h1.63v.25c0,.55.21.69,1.22.69h.2c.86,0,1-.16,1-.66v-.12c0-.49-.14-.71-1.48-.8-2.2-.15-2.56-.66-2.56-2.06v-.16c0-1.32.5-1.85,2.49-1.85h.3c2.39,0,2.74.46,2.74,1.81v.31H29.62v-.23c0-.42-.14-.6-1.05-.6h-.22c-.82,0-1,.12-1,.58v.13c0,.46.12.61,1.47.73,2.2.2,2.59.62,2.59,2Z" transform="translate(-3.08 -0.22)"/><path class="cls-1" d="M35.55,84.54H33.81V79.1H32V77.74H37.4V79.1H35.55Z" transform="translate(-3.08 -0.22)"/><path class="cls-1" d="M40.92,84.62c-2.38,0-2.86-.49-2.86-2.43V77.74h1.75V82c0,1,.14,1.22,1.12,1.22h.15c1,0,1.14-.18,1.14-1.22V77.74H44v4.45c0,1.94-.47,2.43-2.87,2.43Z" transform="translate(-3.08 -0.22)"/><path class="cls-1" d="M50.7,84.54H49v-1c0-1-.18-1.17-1.3-1.17h-.91v2.13H45.06v-6.8h3.29c1.93,0,2.34.56,2.34,2v.16c0,1.06-.26,1.59-1,1.74v0c.82.15,1,.47,1,1.76ZM48,81.14c.8,0,1-.19,1-1V80c0-.78-.2-.92-1-.92H46.77v2.09Z" transform="translate(-3.08 -0.22)"/><path class="cls-1" d="M56.73,84.54h-5v-6.8h4.89v1.33H53.48v1.37h2.94V81.7H53.48v1.48h3.25Z" transform="translate(-3.08 -0.22)"/><path class="cls-1" d="M6.69,95H4.94V89.6H3.08V88.24H8.53V89.6H6.69Z" transform="translate(-3.08 -0.22)"/><path class="cls-1" d="M14.85,95H13.13v-1c0-1-.17-1.17-1.3-1.17h-.91V95H9.21v-6.8H12.5c1.93,0,2.34.56,2.34,2v.16c0,1.06-.26,1.59-1,1.74v0c.82.15,1,.47,1,1.76Zm-2.73-3.4c.8,0,1-.19,1-1v-.21c0-.78-.2-.92-1-.92h-1.2v2.09Z" transform="translate(-3.08 -0.22)"/><path class="cls-1" d="M22.31,95H20.46l-.38-1.32H17.6L17.22,95H15.43l2.22-6.8h2.42Zm-2.6-2.6-.84-3h-.05l-.86,3Z" transform="translate(-3.08 -0.22)"/><path class="cls-1" d="M29.43,95H26.92l-2.35-5.3h-.05l.05,5.3H23v-6.8h2.57l2.31,5.27h.05l-.08-5.27h1.62Z" transform="translate(-3.08 -0.22)"/><path class="cls-1" d="M36.15,93.09c0,1.54-.6,2-2.44,2h-.27c-2.67,0-3-.34-3-1.9v-.35h1.63v.25c0,.55.21.69,1.23.69h.18c.87,0,1-.16,1-.66V93c0-.49-.14-.71-1.48-.8-2.2-.15-2.56-.66-2.56-2.06V90c0-1.32.5-1.85,2.49-1.85h.31c2.38,0,2.73.46,2.73,1.81v.31H34.35v-.23c0-.42-.14-.6-1.06-.6h-.21c-.82,0-1,.12-1,.58v.13c0,.46.12.61,1.48.73,2.19.2,2.58.62,2.58,2Z" transform="translate(-3.08 -0.22)"/><path class="cls-1" d="M38.82,95H37.11v-6.8h2.94c2.09,0,2.63.42,2.63,2.27v.41c0,1.87-.61,2.27-2.55,2.27H38.82ZM40,91.86c.86,0,1-.22,1-.92v-.45c0-.75-.17-.94-1-.94H38.82v2.31Z" transform="translate(-3.08 -0.22)"/><path class="cls-1" d="M46.45,95.12c-2.44,0-3-.71-3-3v-1c0-2.26.59-3,3-3h.22c2.44,0,3,.71,3,3v1c0,2.26-.59,3-3,3Zm.19-1.38c1,0,1.28-.3,1.28-1.62v-1c0-1.32-.25-1.62-1.28-1.62h-.17c-1,0-1.27.3-1.27,1.62v1c0,1.32.25,1.62,1.27,1.62Z" transform="translate(-3.08 -0.22)"/><path class="cls-1" d="M56.32,95H54.6v-1c0-1-.18-1.17-1.3-1.17h-.92V95h-1.7v-6.8H54c1.93,0,2.34.56,2.34,2v.16c0,1.06-.26,1.59-1,1.74v0c.82.15,1,.47,1,1.76Zm-2.73-3.4c.8,0,1-.19,1-1v-.21c0-.78-.2-.92-1-.92h-1.2v2.09Z" transform="translate(-3.08 -0.22)"/><path class="cls-1" d="M60.53,95H58.79V89.6H56.93V88.24h5.45V89.6H60.53Z" transform="translate(-3.08 -0.22)"/><path class="cls-1" d="M5.61,47.93V17.87L31.64,3l26,14.92v30l-26,15ZM31.64.22,3.32,16.56V49.24L31.64,65.58,60,49.24V16.56Z" transform="translate(-3.08 -0.22)"/><path class="cls-1" d="M30.66,35.08V30.39H42.1v-4l6.32,6.43L42.1,39.22V35.08Zm-3.48,0H25.32V30.39h1.86ZM15.63,30.39h2v4.69h-2Zm6.75,4.69H20.53V30.39h1.85Zm30.83-2.4L38.61,18v8.93H30.55V13.4H27.18V26.91H12.25V38.45h15V52.07h3.37V38.45h8.06v8.94Z" transform="translate(-3.08 -0.22)"/></g></svg>
