<svg height="85px" id="Layer_1" data-name="Layer 1" xmlns="http://www.w3.org/2000/svg" viewBox="0 0 57 96.6"><defs><style>.cls-1{fill:#1d1d1b;}</style></defs><title>packable</title><path d="M28.5,65.78,0,49.34V16.46L28.5,0,57,16.46V49.34ZM2.3,48,28.5,63,54.7,47.92V17.77l-26.2-15-26.2,15V48ZM41.43,21.17a5.54,5.54,0,0,1,5.49,5.26V41.56a5.27,5.27,0,0,1-5.27,5.26H15.35a5.27,5.27,0,0,1-5.27-5.26V26.43a5.27,5.27,0,0,1,5.27-5.26H20V21a5.73,5.73,0,0,1,5.7-5.7h4.82a5.73,5.73,0,0,1,5.7,5.7v.22ZM22.91,21v.22H33V21a2.67,2.67,0,0,0-2.63-2.63H25.54A2.67,2.67,0,0,0,22.91,21ZM43.3,41.56V26.43a1.85,1.85,0,0,0-1.87-1.86H15.13a1.85,1.85,0,0,0-1.87,1.86V41.56a1.85,1.85,0,0,0,1.87,1.86h26.3A1.85,1.85,0,0,0,43.3,41.56Z"/><path class="cls-1" d="M5,84.28H3.32v-6.8H6.27c2.09,0,2.63.42,2.63,2.27v.41c0,1.87-.61,2.27-2.55,2.27H5ZM6.16,81.1c.87,0,1-.22,1-.92v-.45c0-.75-.17-.94-1-.94H5V81.1Z"/><path class="cls-1" d="M16.19,84.28H14.34L14,83H11.47l-.38,1.32H9.3l2.22-6.8H14Zm-2.61-2.6-.84-3h-.05l-.86,3Z"/><path class="cls-1" d="M19.64,84.36c-2.35,0-2.94-.62-2.94-3v-1c0-2.32.6-3,2.95-3h.19c2.23,0,2.79.54,2.79,2.19v.32H20.94v-.22c0-.6-.19-.93-1.11-.93h-.12c-1,0-1.23.29-1.23,1.61v1c0,1.4.26,1.62,1.21,1.62h.13c.84,0,1.16-.22,1.16-1v-.26h1.68v.41c0,1.71-.67,2.21-2.83,2.21Z"/><path class="cls-1" d="M29.76,84.28H27.61l-1.76-2.83h-.51v2.83H23.62v-6.8h1.72v2.67h.54l1.66-2.67h2l-2.19,3.28Z"/><path class="cls-1" d="M36.76,84.28H34.91L34.53,83H32l-.38,1.32H29.87l2.22-6.8h2.43Zm-2.61-2.6-.84-3h-.05l-.86,3Z"/><path class="cls-1" d="M37.4,84.28v-6.8h3.52c1.67,0,2.19.35,2.19,1.75,0,1-.25,1.35-1,1.51v0c.81.16,1.13.5,1.13,1.64,0,1.48-.6,1.87-2.06,1.87Zm3.43-4.07c.46,0,.62-.11.62-.74s-.15-.74-.62-.74H39.09v1.48Zm0,2.79c.59,0,.73-.18.73-.8s-.17-.8-.73-.8H39.09V83Z"/><path class="cls-1" d="M48.65,84.28H44.18v-6.8h1.75v5.43h2.72Z"/><path class="cls-1" d="M54.35,84.28h-5v-6.8h4.9v1.33H51.09v1.37H54v1.26H51.09v1.48h3.26Z"/></svg>