<?xml version="1.0" encoding="utf-8"?>
<!-- Generator: Adobe Illustrator 22.1.0, SVG Export Plug-In . SVG Version: 6.00 Build 0)  -->
<svg height="85px" version="1.1" id="Layer_1" xmlns="http://www.w3.org/2000/svg" xmlns:xlink="http://www.w3.org/1999/xlink" x="0px" y="0px"
	 viewBox="0 0 57 96.6" style="enable-background:new 0 0 57 96.6;" xml:space="preserve">
<style type="text/css">
	.st0{enable-background:new    ;}
	.st1{fill:#1D1D1B;}
</style>
<title>quick_dry</title>
<g id="Lager_1">
	<g>
		<g class="st0">
			<path class="st1" d="M2.3,80.6c0-2.2,0.6-3,3-3h0.2c2.4,0,3,0.7,3,3v1c0,0.7,0,1.2-0.2,1.6l0.7,0.5l-0.7,0.9l-0.7-0.5
				c-0.5,0.4-1.2,0.5-2.2,0.5H5.3c-2.4,0-3-0.7-3-3V80.6z M6.8,80.6c0-1.3-0.3-1.6-1.3-1.6H5.4c-1,0-1.3,0.3-1.3,1.6v1
				c0,1.3,0.3,1.6,1.3,1.6h0.2c0.4,0,0.7,0,0.9-0.2l-1.1-0.8l0.7-1L6.8,82c0-0.1,0-0.3,0-0.4V80.6z"/>
			<path class="st1" d="M12.5,84.5c-2.4,0-2.9-0.5-2.9-2.4v-4.4h1.7V82c0,1,0.1,1.2,1.1,1.2h0.1c1,0,1.1-0.2,1.1-1.2v-4.3h1.7v4.4
				c0,1.9-0.5,2.4-2.9,2.4H12.5z"/>
			<path class="st1" d="M18.4,84.5h-1.7v-6.8h1.7V84.5z"/>
			<path class="st1" d="M22.3,84.5c-2.3,0-2.9-0.6-2.9-3v-1c0-2.3,0.6-3,2.9-3h0.2c2.2,0,2.8,0.5,2.8,2.2v0.3h-1.7v-0.2
				c0-0.6-0.2-0.9-1.1-0.9h-0.1c-1,0-1.2,0.3-1.2,1.6v1c0,1.4,0.3,1.6,1.2,1.6h0.1c0.8,0,1.2-0.2,1.2-1v-0.3h1.7v0.4
				c0,1.7-0.7,2.2-2.8,2.2H22.3z"/>
			<path class="st1" d="M32.4,84.5h-2.1l-1.8-2.8H28v2.8h-1.7v-6.8H28v2.7h0.5l1.7-2.7h2L30,81L32.4,84.5z"/>
		</g>
		<g class="st0">
			<path class="st1" d="M41.9,81.7c0,2.3-0.5,2.8-3.2,2.8h-3v-6.8h3c2.6,0,3.2,0.4,3.2,2.8V81.7z M38.7,83.1c1.3,0,1.5-0.3,1.5-1.6
				v-0.9c0-1.3-0.2-1.5-1.5-1.5h-1.2v4.1H38.7z"/>
		</g>
		<g class="st0">
			<path class="st1" d="M48.6,84.5h-1.7v-1c0-1-0.2-1.2-1.3-1.2h-0.9v2.1h-1.7v-6.8h3.3c1.9,0,2.3,0.6,2.3,2v0.2
				c0,1.1-0.3,1.6-1,1.7v0c0.8,0.1,1,0.5,1,1.8V84.5z M45.8,81.1c0.8,0,1-0.2,1-1v-0.2c0-0.8-0.2-0.9-1-0.9h-1.2v2.1H45.8z"/>
		</g>
		<g class="st0">
			<path class="st1" d="M52.9,84.5h-1.7v-2.2l-2.3-4.6h1.9l1.3,3.1h0l1.3-3.1h1.9l-2.3,4.6V84.5z"/>
		</g>
	</g>
	<path class="st1" d="M2.3,48.1V17.9l26.2-15l26.2,15V48L28.5,63.1L2.3,48.1z M28.5,0.1L0,16.5v32.9l28.5,16.4L57,49.4V16.5
		L28.5,0.1z"/>
	<path class="st1" d="M14.6,26.6c-0.9,1.4-1.9,3.2-2.6,4.6c-1.6,3-2,5.9-1.1,7.9c0.7,1.3,2.1,2.1,3.6,2c1.8,0,3.8-0.9,4.3-2.8
		c0.5-2.7-0.3-4.9-1.9-7.6c-0.4-0.8-0.8-1.4-1.2-2.1C15.3,28,14.9,27.3,14.6,26.6 M14.5,44.6L14.5,44.6c-2.9,0.1-5.5-1.4-6.8-4
		c-2-4.3,0.2-9.1,1.2-11c1.6-3.1,4.2-7.2,4.3-7.5l1.8-3l1.3,3.2c0.3,0.8,1.3,2.4,2.4,4.5c0.4,0.7,0.8,1.5,1.2,2.1
		c0.9,1.4,1.6,3,2,4.6c0.4,1.8,0.5,3.6,0.2,5.4C21.3,42.3,18.3,44.6,14.5,44.6"/>
	<path class="st1" d="M37.3,23.8c-5,0.1-9.1,4.2-9,9.2c0.1,5,4.2,9.1,9.2,9c5-0.1,9-4.1,9-9.1c0-5-4.1-9.1-9.1-9.1
		C37.3,23.8,37.3,23.8,37.3,23.8 M37.3,45.5c-7,0-12.6-5.6-12.6-12.6s5.6-12.6,12.6-12.6s12.6,5.6,12.6,12.6l0,0l0,0
		C49.8,39.8,44.2,45.4,37.3,45.5"/>
	<polygon class="st1" points="42,38.8 35.2,34.3 35.2,26.1 38.6,26.1 38.6,32.4 43.8,35.9 	"/>
</g>
</svg>
