<?xml version="1.0" encoding="utf-8"?>
<!-- Generator: Adobe Illustrator 22.1.0, SVG Export Plug-In . SVG Version: 6.00 Build 0)  -->
<svg height="85px" version="1.1" id="Layer_1" xmlns="http://www.w3.org/2000/svg" xmlns:xlink="http://www.w3.org/1999/xlink" x="0px" y="0px"
	 viewBox="0 0 56.9 96.6" style="enable-background:new 0 0 56.9 96.6;" xml:space="preserve">
<style type="text/css">
	.st0{enable-background:new    ;}
	.st1{fill:#1D1D1B;}
</style>
<title>seamless</title>
<g id="Lager_1">
	<g class="st0">
		<path class="st1" d="M9.3,82.3c0,1.5-0.6,2-2.4,2H6.6c-2.7,0-3-0.3-3-1.9v-0.3h1.6v0.2c0,0.6,0.2,0.7,1.2,0.7h0.2
			c0.9,0,1-0.2,1-0.7v-0.1c0-0.5-0.1-0.7-1.5-0.8c-2.2-0.2-2.6-0.7-2.6-2.1v-0.2c0-1.3,0.5-1.8,2.5-1.8h0.3c2.4,0,2.7,0.5,2.7,1.8
			v0.3H7.5v-0.2c0-0.4-0.1-0.6-1.1-0.6H6.2c-0.8,0-1,0.1-1,0.6v0.1c0,0.5,0.1,0.6,1.5,0.7c2.2,0.2,2.6,0.6,2.6,2V82.3z"/>
		<path class="st1" d="M15.3,84.2h-5v-6.8h4.9v1.3H12v1.4h2.9v1.3H12v1.5h3.3V84.2z"/>
		<path class="st1" d="M22.5,84.2h-1.8l-0.4-1.3h-2.5l-0.4,1.3h-1.8l2.2-6.8h2.4L22.5,84.2z M19.9,81.6l-0.8-2.9h0l-0.9,2.9H19.9z"
			/>
		<path class="st1" d="M31.4,84.2h-1.6l0.1-5.3h0l-1.7,5.3h-1.6l-1.7-5.3h0l0.1,5.3h-1.6v-6.8h2.6l1.5,5h0l1.5-5h2.6V84.2z"/>
		<path class="st1" d="M37,84.2h-4.5v-6.8h1.7v5.4H37V84.2z"/>
		<path class="st1" d="M42.7,84.2h-5v-6.8h4.9v1.3h-3.2v1.4h2.9v1.3h-2.9v1.5h3.3V84.2z"/>
		<path class="st1" d="M49.2,82.3c0,1.5-0.6,2-2.4,2h-0.3c-2.7,0-3-0.3-3-1.9v-0.3H45v0.2c0,0.6,0.2,0.7,1.2,0.7h0.2
			c0.9,0,1-0.2,1-0.7v-0.1c0-0.5-0.1-0.7-1.5-0.8c-2.2-0.2-2.6-0.7-2.6-2.1v-0.2c0-1.3,0.5-1.8,2.5-1.8h0.3c2.4,0,2.7,0.5,2.7,1.8
			v0.3h-1.6v-0.2c0-0.4-0.1-0.6-1.1-0.6h-0.2c-0.8,0-1,0.1-1,0.6v0.1c0,0.5,0.1,0.6,1.5,0.7c2.2,0.2,2.6,0.6,2.6,2V82.3z"/>
		<path class="st1" d="M55.7,82.3c0,1.5-0.6,2-2.4,2H53c-2.7,0-3-0.3-3-1.9v-0.3h1.6v0.2c0,0.6,0.2,0.7,1.2,0.7H53
			c0.9,0,1-0.2,1-0.7v-0.1c0-0.5-0.1-0.7-1.5-0.8c-2.2-0.2-2.6-0.7-2.6-2.1v-0.2c0-1.3,0.5-1.8,2.5-1.8h0.3c2.4,0,2.7,0.5,2.7,1.8
			v0.3h-1.6v-0.2c0-0.4-0.1-0.6-1.1-0.6h-0.2c-0.8,0-1,0.1-1,0.6v0.1c0,0.5,0.1,0.6,1.5,0.7c2.2,0.2,2.6,0.6,2.6,2V82.3z"/>
	</g>
	<path class="st1" d="M2.3,48.1V17.8l26.2-15l26.2,15V48L28.5,63L2.3,48.1z M0,16.5v32.8l28.5,16.4l28.5-16.4V16.5L28.5,0.1L0,16.5z
		"/>
	<polygon class="st1" points="44.5,19.2 41.9,16.8 28.5,30.3 14.9,16.8 12.5,19.2 26,32.7 12.5,46.2 14.9,48.6 28.5,35.1 41.9,48.6 
		44.5,46.2 30.9,32.7 	"/>
	<rect x="15.2" y="30.8" class="st1" width="5.5" height="3.7"/>
	<rect x="36.1" y="30.8" class="st1" width="5.5" height="3.7"/>
	<rect x="7.4" y="30.8" class="st1" width="5.5" height="3.7"/>
	<rect x="44.1" y="30.8" class="st1" width="5.5" height="3.7"/>
</g>
</svg>
