<?xml version="1.0" encoding="utf-8"?>
<!-- Generator: Adobe Illustrator 22.1.0, SVG Export Plug-In . SVG Version: 6.00 Build 0)  -->
<svg height="85px" version="1.1" id="Layer_1" xmlns="http://www.w3.org/2000/svg" xmlns:xlink="http://www.w3.org/1999/xlink" x="0px" y="0px"
	 viewBox="0 0 60.8 96.9" style="enable-background:new 0 0 60.8 96.9;" xml:space="preserve">
<style type="text/css">
	.st0{enable-background:new    ;}
	.st1{fill:#1D1D1B;}
</style>
<title>sofrt_touch</title>
<g id="Lager_1">
	<g>
		<g class="st0">
			<path class="st1" d="M6.2,82.8c0,1.5-0.6,2-2.4,2H3.4c-2.7,0-3-0.3-3-1.9v-0.3h1.6v0.2c0,0.5,0.2,0.7,1.2,0.7h0.2
				c0.9,0,1-0.2,1-0.7v-0.1C4.5,82.3,4.4,82,3,82c-2.2-0.1-2.6-0.7-2.6-2.1v-0.2c0-1.3,0.5-1.8,2.5-1.8h0.3c2.4,0,2.7,0.5,2.7,1.8
				V80H4.4v-0.2c0-0.4-0.1-0.6-1.1-0.6H3.1c-0.8,0-1,0.1-1,0.6v0.1c0,0.5,0.1,0.6,1.5,0.7c2.2,0.2,2.6,0.6,2.6,2V82.8z"/>
			<path class="st1" d="M10,84.8c-2.4,0-3-0.7-3-3v-1c0-2.3,0.6-3,3-3h0.2c2.4,0,3,0.7,3,3v1c0,2.3-0.6,3-3,3H10z M10.2,83.5
				c1,0,1.3-0.3,1.3-1.6v-1c0-1.3-0.2-1.6-1.3-1.6H10c-1,0-1.3,0.3-1.3,1.6v1c0,1.3,0.2,1.6,1.3,1.6H10.2z"/>
			<path class="st1" d="M16,84.8h-1.7V78h4.7v1.4h-3V81h2.8v1.3H16V84.8z"/>
			<path class="st1" d="M22.8,84.8h-1.7v-5.4h-1.9V78h5.5v1.4h-1.8V84.8z"/>
		</g>
		<g class="st0">
			<path class="st1" d="M31.3,84.8h-1.7v-5.4h-1.9V78h5.5v1.4h-1.8V84.8z"/>
		</g>
		<g class="st0">
			<path class="st1" d="M36.5,84.8c-2.4,0-3-0.7-3-3v-1c0-2.3,0.6-3,3-3h0.2c2.4,0,3,0.7,3,3v1c0,2.3-0.6,3-3,3H36.5z M36.7,83.5
				c1,0,1.3-0.3,1.3-1.6v-1c0-1.3-0.2-1.6-1.3-1.6h-0.2c-1,0-1.3,0.3-1.3,1.6v1c0,1.3,0.2,1.6,1.3,1.6H36.7z"/>
			<path class="st1" d="M43.5,84.8c-2.4,0-2.9-0.5-2.9-2.4V78h1.7v4.3c0,1,0.1,1.2,1.1,1.2h0.1c1,0,1.1-0.2,1.1-1.2V78h1.7v4.4
				c0,1.9-0.5,2.4-2.9,2.4H43.5z"/>
			<path class="st1" d="M50.5,84.8c-2.3,0-2.9-0.6-2.9-3v-1c0-2.3,0.6-3,2.9-3h0.2c2.2,0,2.8,0.5,2.8,2.2v0.3h-1.7v-0.2
				c0-0.6-0.2-0.9-1.1-0.9h-0.1c-1,0-1.2,0.3-1.2,1.6v1c0,1.4,0.3,1.6,1.2,1.6h0.1c0.8,0,1.2-0.2,1.2-1v-0.3h1.7v0.4
				c0,1.7-0.7,2.2-2.8,2.2H50.5z"/>
			<path class="st1" d="M60.4,84.8h-1.7v-2.7h-2.4v2.7h-1.7V78h1.7v2.6h2.4V78h1.7V84.8z"/>
		</g>
	</g>
	<path class="st1" d="M3.8,48.3V18.2l26-14.9l26,14.9v30l-26,15L3.8,48.3z M1.5,16.9v32.7L29.9,66l28.3-16.4V16.9L29.9,0.6L1.5,16.9
		z"/>
	<path class="st1" d="M23.9,40.7l0.9,0.9c1.2,1.3,2.9,2,4.7,2c1.9,0,3.6-0.8,4.9-2.2l0.9-1l1.2,0.7c3.2,1.7,7.2,0.5,8.9-2.8
		c0,0,0,0,0,0c0.5-0.9,0.8-2,0.8-3c0-2.5-1.4-4.7-3.6-5.9l-0.8-0.4l-0.1-1c-0.3-3.6-3.4-6.3-7-6.1c-1.5,0.1-2.9,0.7-4,1.7l-1.2,1.1
		l-1.2-1.1c-1.2-1.1-2.8-1.7-4.5-1.7c-3.5,0-6.4,2.8-6.5,6.3V29l-0.8,0.4c-3.1,1.9-4.1,5.9-2.2,8.9c1.2,2,3.3,3.2,5.6,3.2
		c1,0,2-0.2,2.8-0.7L23.9,40.7z M29.4,47c-2.3,0-4.6-0.8-6.3-2.3c-1.1,0.3-2.2,0.5-3.3,0.5c-5.5,0-10-4.5-10-10c0-3.2,1.5-6.1,4-8.1
		c0.6-5,4.9-8.8,9.9-8.7c2,0,4,0.6,5.7,1.8c3.9-2.7,9.1-2.2,12.5,1c1.6,1.5,2.7,3.5,3,5.7c4.6,3,6,9.2,3,13.8
		c-1.8,2.8-5,4.6-8.3,4.6c-1.2,0-2.4-0.3-3.6-0.7C34.2,46.2,31.8,47,29.4,47"/>
</g>
</svg>
