<?xml version="1.0" encoding="utf-8"?>
<!-- Generator: Adobe Illustrator 22.1.0, SVG Export Plug-In . SVG Version: 6.00 Build 0)  -->
<svg height="85px" version="1.1" id="Layer_1" xmlns="http://www.w3.org/2000/svg" xmlns:xlink="http://www.w3.org/1999/xlink" x="0px" y="0px"
	 viewBox="0 0 56.6 96.4" style="enable-background:new 0 0 56.6 96.4;" xml:space="preserve">
<style type="text/css">
	.st0{fill:#209DD9;}
	.st1{enable-background:new    ;}
</style>
<title>stay_cool</title>
<g id="Lager_1">
	<path class="st0" d="M28.3,65.1L0,48.8V16.2L28.3-0.1l28.3,16.3v32.6L28.3,65.1z M2.3,47.5l26,15l26-15v-30l-26-15l-26,15V47.5z"/>
	<rect x="33.5" y="14.7" class="st0" width="6.8" height="2.3"/>
	<rect x="33.5" y="22.3" class="st0" width="6.8" height="2.3"/>
	<rect x="33.5" y="30.1" class="st0" width="6.8" height="2.3"/>
	<path class="st0" d="M24,52.2c-4.7,0-8.6-3.8-8.6-8.6c0-2.2,0.8-4.3,2.3-5.9V14.8H30v22.6c1.7,1.6,2.7,3.9,2.6,6.2
		c0,4.7-3.8,8.6-8.5,8.6c0,0,0,0,0,0H24z M20,17v21.7l-0.3,0.4c-1.2,1.2-2,2.8-2,4.6c0,3.5,2.7,6.3,6.2,6.4c3.5,0,6.3-2.7,6.4-6.2
		c0-1.9-0.8-3.7-2.3-5l-0.4-0.3V17H20z"/>
	<circle class="st0" cx="24" cy="43.6" r="2.8"/>
	<rect x="22.4" y="34" class="st0" width="2.7" height="4.2"/>
	<g>
		<g class="st1">
			<path class="st0" d="M9.1,82.7c0,1.5-0.5,1.9-2.3,1.9H6.5c-2.2,0-2.6-0.3-2.6-1.9v-0.3h0.8v0.2c0,1.1,0.2,1.3,1.7,1.3h0.2
				c1.3,0,1.6-0.2,1.6-1.2v-0.1c0-0.8-0.2-1-1.9-1.2c-2-0.1-2.4-0.5-2.4-1.8v-0.2c0-1.3,0.5-1.8,2.3-1.8h0.2c2,0,2.4,0.4,2.4,1.9
				v0.2H8.1v-0.2c0-1-0.2-1.3-1.6-1.3H6.4c-1.3,0-1.5,0.2-1.5,1.1v0.1c0,0.8,0.2,1,1.8,1.1c2,0.2,2.4,0.5,2.4,1.8V82.7z"/>
			<path class="st0" d="M11.6,84.6c-1.1,0-1.4-0.2-1.4-1.9v-2.4H9.5v-0.6h0.7v-1.2H11v1.2h2.2v0.6H11v2.4c0,1.2,0.1,1.3,0.7,1.3h0.1
				c0.6,0,0.7-0.1,0.7-1.2v-0.4h0.6v0.5c0,1.4-0.3,1.7-1.4,1.7H11.6z"/>
		</g>
		<g class="st1">
			<path class="st0" d="M17.7,84.5H17V84h0c-0.2,0.4-0.6,0.6-1.4,0.6h-0.1c-1.3,0-1.7-0.3-1.7-1.4V83c0-1.1,0.4-1.4,1.6-1.4h0.1
				c0.9,0,1.3,0.1,1.5,0.5h0v-0.3c0-1.3-0.1-1.5-1.2-1.5h-0.1c-0.9,0-1.1,0.2-1.1,0.8v0.1h-0.7V81c0-1.1,0.4-1.4,1.8-1.4h0.1
				c1.6,0,1.9,0.3,1.9,2.2V84.5z M15.8,84c0.9,0,1.2-0.2,1.2-0.9V83c0-0.8-0.2-0.9-1.3-0.9h-0.1c-0.9,0-1.1,0.2-1.1,0.9v0.1
				C14.5,83.9,14.7,84,15.8,84L15.8,84z"/>
		</g>
		<g class="st1">
			<path class="st0" d="M18.6,85.6c0.1,0,0.3,0,0.4,0c0.6,0,0.8-0.2,1.1-1.2h-0.4l-1.7-4.7h0.8l1.4,4.1h0l1.3-4.1h0.8L21.1,84
				c-0.6,1.9-0.9,2.3-1.9,2.3c-0.2,0-0.3,0-0.5,0V85.6z"/>
		</g>
	</g>
	<g class="st1">
		<path class="st0" d="M27.9,84.5c-2.3,0-2.9-0.6-2.9-3v-1c0-2.3,0.6-3,2.9-3h0.2c2.2,0,2.8,0.5,2.8,2.2v0.3h-1.7v-0.2
			c0-0.6-0.2-0.9-1.1-0.9H28c-1,0-1.2,0.3-1.2,1.6v1c0,1.4,0.3,1.6,1.2,1.6h0.1c0.8,0,1.2-0.2,1.2-1v-0.3H31v0.4
			c0,1.7-0.7,2.2-2.8,2.2H27.9z"/>
		<path class="st0" d="M34.4,84.5c-2.4,0-3-0.7-3-3v-1c0-2.3,0.6-3,3-3h0.2c2.4,0,3,0.7,3,3v1c0,2.3-0.6,3-3,3H34.4z M34.6,83.1
			c1,0,1.3-0.3,1.3-1.6v-1c0-1.3-0.2-1.6-1.3-1.6h-0.2c-1,0-1.3,0.3-1.3,1.6v1c0,1.3,0.2,1.6,1.3,1.6H34.6z"/>
		<path class="st0" d="M41.2,84.5c-2.4,0-3-0.7-3-3v-1c0-2.3,0.6-3,3-3h0.2c2.4,0,3,0.7,3,3v1c0,2.3-0.6,3-3,3H41.2z M41.4,83.1
			c1,0,1.3-0.3,1.3-1.6v-1c0-1.3-0.2-1.6-1.3-1.6h-0.2c-1,0-1.3,0.3-1.3,1.6v1c0,1.3,0.2,1.6,1.3,1.6H41.4z"/>
		<path class="st0" d="M49.5,84.4H45v-6.8h1.7v5.4h2.7V84.4z"/>
	</g>
</g>
</svg>
