<?xml version="1.0" encoding="utf-8"?>
<!-- Generator: Adobe Illustrator 22.1.0, SVG Export Plug-In . SVG Version: 6.00 Build 0)  -->
<svg height="85px" version="1.1" id="Layer_1" xmlns="http://www.w3.org/2000/svg" xmlns:xlink="http://www.w3.org/1999/xlink" x="0px" y="0px"
	 viewBox="0 0 55.8 97.1" style="enable-background:new 0 0 55.8 97.1;" xml:space="preserve">
<style type="text/css">
	.st0{enable-background:new    ;}
	.st1{fill:#1D1D1B;}
</style>
<title>stretch</title>
<g id="Lager_1">
	<g>
		<g class="st0">
			<path class="st1" d="M12.3,82.3c0,1.5-0.6,2-2.4,2H9.6c-2.7,0-3-0.3-3-1.9V82h1.6v0.2c0,0.5,0.2,0.7,1.2,0.7h0.2
				c0.9,0,1-0.2,1-0.7v-0.1c0-0.5-0.1-0.7-1.5-0.8c-2.2-0.1-2.6-0.7-2.6-2.1v-0.2c0-1.3,0.5-1.8,2.5-1.8h0.3c2.4,0,2.7,0.5,2.7,1.8
				v0.3h-1.6v-0.2c0-0.4-0.1-0.6-1.1-0.6H9.2c-0.8,0-1,0.1-1,0.6v0.1c0,0.5,0.1,0.6,1.5,0.7c2.2,0.2,2.6,0.6,2.6,2V82.3z"/>
			<path class="st1" d="M16.4,84.2h-1.7v-5.4h-1.9v-1.4h5.5v1.4h-1.8V84.2z"/>
			<path class="st1" d="M24.6,84.2h-1.7v-1c0-1-0.2-1.2-1.3-1.2h-0.9v2.1H19v-6.8h3.3c1.9,0,2.3,0.6,2.3,2v0.2c0,1.1-0.3,1.6-1,1.7
				v0c0.8,0.1,1,0.5,1,1.8V84.2z M21.9,80.8c0.8,0,1-0.2,1-1v-0.2c0-0.8-0.2-0.9-1-0.9h-1.2v2.1H21.9z"/>
			<path class="st1" d="M30.6,84.2h-5v-6.8h4.9v1.3h-3.2v1.4h2.9v1.3h-2.9v1.5h3.3V84.2z"/>
		</g>
		<g class="st0">
			<path class="st1" d="M34.7,84.2h-1.7v-5.4h-1.9v-1.4h5.5v1.4h-1.8V84.2z"/>
		</g>
		<g class="st0">
			<path class="st1" d="M39.8,84.3c-2.3,0-2.9-0.6-2.9-3v-1c0-2.3,0.6-3,2.9-3H40c2.2,0,2.8,0.5,2.8,2.2v0.3h-1.7v-0.2
				c0-0.6-0.2-0.9-1.1-0.9h-0.1c-1,0-1.2,0.3-1.2,1.6v1c0,1.4,0.3,1.6,1.2,1.6H40c0.8,0,1.2-0.2,1.2-1v-0.3h1.7v0.4
				c0,1.7-0.7,2.2-2.8,2.2H39.8z"/>
			<path class="st1" d="M49.7,84.2H48v-2.7h-2.4v2.7h-1.7v-6.8h1.7V80H48v-2.6h1.8V84.2z"/>
		</g>
	</g>
	<path class="st1" d="M2.3,47.5V17.7L27.9,2.9l25.6,14.8v29.7L27.9,62.4L2.3,47.5z M27.9,0.2L0,16.4v32.4l27.9,16.2l27.9-16.2V16.4
		L27.9,0.2z"/>
	<path class="st1" d="M34,35.5h5.4v4.8l7.6-7.7L39.4,25v4.9H34V35.5z M37.1,45.8v-8h-5.5V27.4h5.4v-8.1l13.1,13.3L37.1,45.8z"/>
	<path class="st1" d="M8.8,32.6l7.6,7.7v-4.8h5.1v-5.7h-5.1V25L8.8,32.6z M18.6,45.8l-13-13.2l13.1-13.2v8.1h5.1v10.4h-5.1v7.9
		L18.6,45.8z"/>
	<rect x="26.3" y="35.5" class="st1" width="3.2" height="2.4"/>
	<rect x="26.3" y="31.4" class="st1" width="3.2" height="2.4"/>
	<rect x="26.3" y="27.4" class="st1" width="3.2" height="2.4"/>
</g>
</svg>
