<svg height="85px" id="Layer_1" data-name="Layer 1" xmlns="http://www.w3.org/2000/svg" viewBox="0 0 69.77 96.6"><defs><style>.cls-1{fill:#1d1d1b;}</style></defs><title>tapedseams</title><path class="cls-1" d="M3.55,84.6H1.8V79.16H0V77.8H5.4v1.36H3.55Z"/><path class="cls-1" d="M12.5,84.6H10.65l-.38-1.32H7.79L7.41,84.6H5.62l2.22-6.8h2.42ZM9.89,82l-.84-3H9l-.86,3Z"/><path class="cls-1" d="M14.85,84.6h-1.7V77.8h2.94c2.09,0,2.63.42,2.63,2.27v.41c0,1.87-.61,2.27-2.55,2.27H14.85ZM16,81.42c.87,0,1-.22,1-.92v-.45c0-.75-.17-.94-1-.94H14.85v2.31Z"/><path class="cls-1" d="M24.58,84.6h-5V77.8h4.89v1.33H21.33V80.5h2.94v1.26H21.33v1.48h3.25Z"/><path class="cls-1" d="M31.61,81.78c0,2.34-.46,2.82-3.19,2.82h-3V77.8h3c2.59,0,3.19.42,3.19,2.76Zm-3.26,1.46c1.27,0,1.5-.26,1.5-1.61v-.95c0-1.3-.23-1.55-1.5-1.55H27.18v4.11Z"/><path class="cls-1" d="M40.71,82.65c0,1.54-.6,2-2.45,2H38c-2.66,0-3-.34-3-1.9v-.35H36.6v.25c0,.55.21.69,1.23.69H38c.87,0,1-.16,1-.66v-.12c0-.49-.14-.71-1.49-.8-2.19-.15-2.55-.66-2.55-2.06v-.16c0-1.32.5-1.85,2.48-1.85h.31c2.39,0,2.74.46,2.74,1.81v.31H38.91v-.23c0-.42-.14-.6-1.06-.6h-.22c-.82,0-1,.12-1,.58v.13c0,.46.12.61,1.48.73,2.2.2,2.59.62,2.59,2Z"/><path class="cls-1" d="M46.66,84.6h-5V77.8h4.89v1.33H43.4V80.5h3v1.26h-3v1.48h3.26Z"/><path class="cls-1" d="M53.94,84.6H52.09l-.38-1.32H49.22l-.38,1.32H47.06l2.21-6.8H51.7ZM51.33,82l-.84-3h-.05l-.86,3Z"/><path class="cls-1" d="M62.82,84.6H61.18l.06-5.33h0L59.48,84.6H57.89l-1.7-5.33h0l.06,5.33H54.59V77.8h2.62l1.49,5h0l1.49-5h2.6Z"/><path class="cls-1" d="M69.54,82.65c0,1.54-.6,2-2.45,2h-.27c-2.67,0-3-.34-3-1.9v-.35h1.63v.25c0,.55.21.69,1.23.69h.19c.87,0,1-.16,1-.66v-.12c0-.49-.14-.71-1.49-.8-2.2-.15-2.55-.66-2.55-2.06v-.16c0-1.32.49-1.85,2.48-1.85h.31c2.39,0,2.74.46,2.74,1.81v.31H67.74v-.23c0-.42-.14-.6-1.06-.6h-.22c-.82,0-1,.12-1,.58v.13c0,.46.12.61,1.48.73,2.2.2,2.59.62,2.59,2Z"/><path d="M34.89,65.78,6.39,49.34V16.46L34.89,0l28.5,16.44V49.34ZM8.69,48l26.2,15L61.08,47.92V17.77l-26.19-15-26.2,15V48Zm14.8-13.49V30.82H29v3.72Zm8.77,0V30.82h5.48v3.72Zm8.65,0V30.82H46.4v3.72ZM54.4,41.23H15.48V24.57H54.4ZM18.88,37.72H51V28H18.88v9.75Z"/></svg>