<svg height="85px" id="Layer_1" data-name="Layer 1" xmlns="http://www.w3.org/2000/svg" viewBox="0 0 57 96.6"><defs><style>.cls-1{fill:#1d1d1b;}</style></defs><title>upf25</title><path class="cls-1" d="M11.82,84.68C9.44,84.68,9,84.19,9,82.25V77.8h1.75v4.28c0,1,.14,1.22,1.13,1.22H12c1,0,1.14-.18,1.14-1.22V77.8h1.75v4.45c0,1.94-.47,2.43-2.87,2.43Z"/><path class="cls-1" d="M17.67,84.6H16V77.8h2.95c2.09,0,2.63.42,2.63,2.27v.41c0,1.87-.61,2.27-2.55,2.27H17.67Zm1.13-3.18c.87,0,1-.22,1-.92v-.45c0-.75-.17-.94-1-.94H17.67v2.31Z"/><path class="cls-1" d="M24.14,84.6H22.4V77.8h4.7v1.37h-3v1.66h2.77v1.31H24.14Z"/><path class="cls-1" d="M35.82,84.6H30.3V83.41c0-1.57.21-2.11,2.42-2.51,1.24-.22,1.4-.39,1.4-1v-.16c0-.54-.1-.71-1-.71h-.13c-1,0-1.06.14-1.06.91v.19H30.31V80c0-1.85.38-2.24,2.56-2.24H33c2.28,0,2.82.43,2.82,1.93v.22c0,1.53-.4,1.9-2.28,2.27-1.51.3-1.56.4-1.56.94v.21h3.84Z"/><path class="cls-1" d="M39.46,84.68c-2.19,0-2.56-.41-2.56-1.93v-.17h1.53v.12c0,.55.16.64,1.17.64h.15c.93,0,1-.17,1-.9v-.19c0-.78-.07-.93-1.12-.93h-.19c-.8,0-.94.14-.95.57H37V77.8H42.2v1.31H38.54v1.45h0c.21-.38.56-.53,1.43-.53h.27c1.71,0,2.18.42,2.18,1.9v.52c0,1.77-.49,2.23-2.74,2.23Z"/><path class="cls-1" d="M46.36,83.89H45.09V82.17H43.45V81h1.64V79.29h1.27V81H48v1.21H46.36Z"/><path d="M28.5,65.73,0,49.29V16.4L28.5,0,57,16.4V49.29ZM2.3,48,28.5,63,54.7,47.86V17.72L28.5,2.7l-26.2,15V48ZM29.38,20a13.34,13.34,0,0,1,8.88,4.38,12.88,12.88,0,0,1,3.17,9.43A13,13,0,0,1,28.5,45.89h-.88a12.94,12.94,0,0,1-12-13.81A13,13,0,0,1,28.5,20ZM38,33.61a9.52,9.52,0,0,0-2.42-6.9,9.74,9.74,0,0,0-6.57-3.29h0V33.61L19,33.72a9.38,9.38,0,0,0,2.31,5.48,9.74,9.74,0,0,0,6.57,3.29h.66A9.5,9.5,0,0,0,38,33.61Zm3.83-15.23L39,21.88l-3.61-3,3-3.5Zm.05,7.6,4.18-1.65,1.7,4.28-4.18,1.65ZM46.63,40.9l-4.24-1.51,1.55-4.33,4.23,1.5ZM36.17,46.66l3.4-3.07,3,3.29L39.13,50ZM13.86,39.4l-4.42.8-.82-4.53,4.42-.8Zm-4.7-11L10.6,24l4.27,1.4-1.44,4.38Zm12.43-9.15-3.94,2.3-2.3-3.83,3.94-2.3Zm4.82-5.84,4.6-.17.17,4.49-4.6.17Zm4.85,35-.1,4.49-4.6-.1.1-4.5Zm-17-1.27,2.52-3.73L20.5,46,18,49.73Z"/></svg>