<svg height="85px" id="Layer_1" data-name="Layer 1" xmlns="http://www.w3.org/2000/svg" viewBox="0 0 57 96.6"><defs><style>.cls-1{fill:#1d1d1b;}</style></defs><title>upf50</title><path class="cls-1" d="M11.82,84.68C9.44,84.68,9,84.19,9,82.25V77.8h1.75v4.28c0,1,.14,1.22,1.13,1.22H12c1,0,1.14-.18,1.14-1.22V77.8h1.75v4.45c0,1.94-.47,2.43-2.87,2.43Z"/><path class="cls-1" d="M17.67,84.6H16V77.8h2.95c2.09,0,2.63.42,2.63,2.27v.41c0,1.87-.61,2.27-2.55,2.27H17.67Zm1.13-3.18c.87,0,1-.22,1-.92v-.45c0-.75-.17-.94-1-.94H17.67v2.31Z"/><path class="cls-1" d="M24.14,84.6H22.4V77.8h4.7v1.37h-3v1.66h2.77v1.31H24.14Z"/><path class="cls-1" d="M32.87,84.68c-2.2,0-2.57-.41-2.57-1.93v-.17h1.54v.12c0,.55.16.64,1.17.64h.15c.93,0,1-.17,1-.9v-.19c0-.78-.07-.93-1.12-.93h-.19c-.8,0-.94.14-1,.57H30.39V77.8h5.22v1.31H32v1.45h0c.21-.38.56-.53,1.43-.53h.27c1.71,0,2.18.42,2.18,1.9v.52c0,1.77-.49,2.23-2.74,2.23Z"/><path class="cls-1" d="M39.56,84.68c-2.2,0-2.74-.58-2.74-2.94V80.66c0-2.36.54-2.94,2.74-2.94h.21c2.2,0,2.75.58,2.75,2.94v1.08c0,2.36-.55,2.94-2.75,2.94Zm.17-1.39c.93,0,1.15-.21,1.15-1.45V80.56c0-1.24-.22-1.45-1.15-1.45H39.6c-.93,0-1.15.21-1.15,1.45v1.28c0,1.24.22,1.45,1.15,1.45Z"/><path class="cls-1" d="M46.5,83.89H45.23V82.17H43.59V81h1.64V79.29H46.5V81h1.64v1.21H46.5Z"/><path d="M28.5,65.73,0,49.29V16.4L28.5,0,57,16.4V49.29ZM2.3,48,28.5,63,54.7,47.86V17.72L28.5,2.7l-26.2,15V48ZM29.49,19.91a12.95,12.95,0,0,1-.88,25.87h-.88A12.92,12.92,0,0,1,15.68,32,13,13,0,0,1,28.61,19.91ZM38.15,33.5a9.57,9.57,0,0,0-8.88-10.19h-.11V42.38a9.56,9.56,0,0,0,9-8.88ZM42,18.16l-3,3.5-3.5-3,2.95-3.39Zm.07,7.62,4.18-1.65,1.7,4.28-4.18,1.65Zm4.66,14.91-4.24-1.5L44,34.85l4.23,1.51ZM36.17,46.44l3.51-3.07,3,3.4-3.4,3.07ZM14,39.21,9.52,40,8.7,35.48l4.43-.8ZM9.25,28.29l1.43-4.37L15,25.32l-1.44,4.37ZM21.7,19l-3.94,2.42-2.3-3.84L19.4,15.2Zm4.73-5.81,4.6-.17.17,4.49-4.6.17Zm4.94,35-.11,4.49-4.6-.1.1-4.5Zm-17-1.32,2.52-3.73,3.73,2.63-2.52,3.73Z"/></svg>