<svg height="85px" id="Layer_1" data-name="Layer 1" xmlns="http://www.w3.org/2000/svg" viewBox="0 0 100.63 96.4"><defs><style>.cls-1{fill:#1d1d1b;}</style></defs><title>ventair</title><g id="Lager_1" data-name="Lager 1"><path class="cls-1" d="M77.84,84.47h0a.63.63,0,0,1-.63-.49l-1.65-4.65L73.84,84a.61.61,0,0,1-.62.49h0a.66.66,0,0,1-.64-.49l-2.09-5.59h0a.58.58,0,0,1-.06-.26.56.56,0,0,1,.58-.54h0a.61.61,0,0,1,.58.45l1.67,4.8L74.92,78a.59.59,0,0,1,.57-.44h.05a.6.6,0,0,1,.6.44l1.67,4.81L79.51,78a.55.55,0,0,1,.55-.43.54.54,0,0,1,.57.51h0a.66.66,0,0,1-.06.27h0L78.46,84a.67.67,0,0,1-.62.49"/><path class="cls-1" d="M82.63,76.91a.61.61,0,0,1-.66-.56v-.19a.68.68,0,0,1,1.34,0v.16a.61.61,0,0,1-.65.59h0m0,7.52a.56.56,0,0,1-.58-.54V78.12a.58.58,0,0,1,1.16,0v5.75a.56.56,0,0,1-.56.56h0"/><path class="cls-1" d="M90.62,84.43a.57.57,0,0,1-.59-.55h0V80.44a1.74,1.74,0,0,0-1.52-1.93,1.71,1.71,0,0,0-.32,0,1.92,1.92,0,0,0-2,1.84v3.51a.55.55,0,0,1-.54.56h0a.57.57,0,0,1-.59-.55h0V78.12a.58.58,0,0,1,.58-.56.58.58,0,0,1,.58.56h0v.51a2.69,2.69,0,0,1,2.3-1.15,2.54,2.54,0,0,1,2.7,2.37,2,2,0,0,1,0,.35v3.67a.56.56,0,0,1-.56.56h0"/><path class="cls-1" d="M96.18,78.49a2.33,2.33,0,0,0-2.38,2.28,1.77,1.77,0,0,0,0,.23h0a2.38,2.38,0,0,0,2.26,2.5h.11A2.46,2.46,0,0,0,98.6,81h0a2.43,2.43,0,0,0-2.37-2.49h0m-.19,6a3.34,3.34,0,0,1-3.36-3.34V81h0a3.36,3.36,0,0,1,3.2-3.52H96a3.14,3.14,0,0,1,2.57,1.28V76.12a.56.56,0,0,1,.56-.56h0a.56.56,0,0,1,.58.54v7.77a.56.56,0,0,1-.56.56h0a.57.57,0,0,1-.59-.55h0v-.7A3.09,3.09,0,0,1,96,84.51"/><path class="cls-1" d="M66.76,88.84a.62.62,0,0,1-.58-.4L62.56,82l-3.63,6.48a.62.62,0,0,1-.58.4.58.58,0,0,1-.59-.55.54.54,0,0,1,.06-.25l4.06-7.15c.19-.32.33-.46.67-.46h0c.34,0,.48.14.67.46L67.29,88a.54.54,0,0,1,.06.25.58.58,0,0,1-.59.55"/><path class="cls-1" d="M62.57,79.77h0c-.33,0-.47-.14-.66-.46l-4.06-7.15a.54.54,0,0,1-.06-.25.59.59,0,0,1,.59-.55.62.62,0,0,1,.58.4l3.63,6.49,3.62-6.49a.62.62,0,0,1,.58-.4.58.58,0,0,1,.59.55.54.54,0,0,1-.06.25l-4.06,7.15c-.19.32-.33.46-.66.46"/><path class="cls-1" d="M38.51,76.38l3.08,7a.73.73,0,0,1,.09.35.76.76,0,0,1-.77.73h0a.81.81,0,0,1-.79-.53l-2.55-6.12L35,83.94a.79.79,0,0,1-.75.49.74.74,0,0,1-.76-.72h0a.82.82,0,0,1,.07-.31l3.1-7a.91.91,0,0,1,.89-.61h.09a.93.93,0,0,1,.89.61"/><path class="cls-1" d="M4.07,83.83,1,76.86a.73.73,0,0,1-.09-.35.76.76,0,0,1,.79-.73h0a.82.82,0,0,1,.79.54L5,82.43l2.6-6.16a.8.8,0,0,1,.74-.49.71.71,0,0,1,.75.67.63.63,0,0,1-.06.33l-3.1,7a.91.91,0,0,1-.89.61H5a.92.92,0,0,1-.88-.61"/><path class="cls-1" d="M10.36,83.57v-7a.76.76,0,0,1,.76-.76h5.15a.7.7,0,0,1,.7.67.67.67,0,0,1-.69.67H11.91v2.2h3.8a.69.69,0,0,1,.69.68.68.68,0,0,1-.69.65h-3.8V83h4.43a.67.67,0,0,1,.75.58.68.68,0,0,1-.59.75.43.43,0,0,1-.16,0h-5.2a.76.76,0,0,1-.78-.74h0"/><path class="cls-1" d="M18.31,76.55a.76.76,0,0,1,.77-.75h.18a1,1,0,0,1,.81.43l4.41,5.49V76.51a.76.76,0,1,1,1.52,0v7.12a.74.74,0,0,1-.74.74h-.08a1,1,0,0,1-.81-.45l-4.53-5.64v5.37a.77.77,0,0,1-1.53,0Z"/><path class="cls-1" d="M29.88,77.22H27.74a.69.69,0,1,1,0-1.38H33.6a.69.69,0,0,1,0,1.38H31.44v6.42a.78.78,0,0,1-1.56,0Z"/><path class="cls-1" d="M42.85,76.52a.78.78,0,0,1,1.55,0v7.12a.78.78,0,0,1-1.55,0Z"/><path class="cls-1" d="M50,80c1.11,0,1.81-.55,1.81-1.41h0c0-.9-.68-1.4-1.82-1.4H47.71V80Zm-3.84-3.4a.76.76,0,0,1,.76-.76h3.17a3.64,3.64,0,0,1,2.55.85,2.56,2.56,0,0,1,.73,1.83h0a2.52,2.52,0,0,1-2,2.53l1.68,2a.82.82,0,0,1,.26.57.72.72,0,0,1-.75.69h0a.87.87,0,0,1-.75-.39l-2.15-2.63H47.71v2.28a.78.78,0,0,1-1.55,0Z"/><path class="cls-1" d="M55.62,76.9h0l-.5-.74v1h-.2V75.85h.21l.51.74.49-.74h.21V77.2h-.19v-1Zm-1.49.3h-.2V76h-.56v-.18h1.32V76h-.56Z"/><path class="cls-1" d="M24.27,47.71V17.65l26-15,26,15V47.71l-26,15ZM50.31,0,22,16.34V49L50.31,65.35,78.63,49V16.34Z"/><rect class="cls-1" x="58.59" y="18.74" width="3.38" height="24.4"/><path class="cls-1" d="M54.45,21.68H42.79a2.62,2.62,0,0,1-2-.66,3.29,3.29,0,0,1-.65-2.18l-3.38-.32a7,7,0,0,0,1.53,4.9,5.52,5.52,0,0,0,4.46,1.74h8.06L48,28.65,46,27l.22,7.19,7-1.63-2.4-1.85,5-6.21A1.65,1.65,0,0,0,56,22.66a1.82,1.82,0,0,0-1.52-1"/><path class="cls-1" d="M54.45,37H42.79a2.66,2.66,0,0,1-2-.65,3.29,3.29,0,0,1-.65-2.18l-3.38-.43a7,7,0,0,0,1.53,4.9,5.52,5.52,0,0,0,4.46,1.74h8.06L48,43.9l-2-1.53.22,7.19,7-1.63-2.4-1.85,5-6.21a1.74,1.74,0,0,0-.19-2.45A1.76,1.76,0,0,0,54.45,37"/></g></svg>
