<svg height="85px" id="Layer_1" data-name="Layer 1" xmlns="http://www.w3.org/2000/svg" viewBox="0 0 67.59 96.6"><defs><style>.cls-1{fill:#1d1d1b;}</style></defs><title>waterproof</title><path d="M33.82,65.73,5.32,49.29V16.4L33.82,0,62.32,16.4V49.29ZM7.62,48l26.2,15L60,47.86V17.72L33.82,2.7l-26.2,15V48ZM33.38,43h0c-3.84,0-7-1.86-8.44-4.93a12.47,12.47,0,0,1-.77-7.35,18.73,18.73,0,0,1,2.41-6.57c2.19-4.06,5.59-9.76,5.7-9.76l1.75-3,1.32,3.18c.44,1,1.75,3.29,3.29,5.92.55.88,1,1.86,1.64,2.74,2.09,3.62,3.84,7.67,2.85,12.82-1,4.06-4.93,6.91-9.75,6.91Zm.11-24.23c-1.21,2-2.74,4.72-4,7-3.18,5.92-2.08,9.65-1.53,11,.87,1.86,2.85,3,5.37,3s5.59-1.31,6.14-4.16c.76-3.73-.44-6.91-2.53-10.42-.54-1-1.09-1.86-1.53-2.74-.77-1.53-1.43-2.63-2-3.62Zm12.6,23.35c.22-.55.33-1.75.66-3.18a5.7,5.7,0,0,1,1.75-3.39c1.65-1.32,4.5.65,4,2.63a4.89,4.89,0,0,1-3,2.74c-1.43.54-3.4,1.2-3.4,1.2Zm-26-.76s-2.08.1-3.5.21a5,5,0,0,1-3.73-1.31c-1.32-1.65.55-4.5,2.63-3.95a5.24,5.24,0,0,1,2.85,2.41,26.52,26.52,0,0,0,1.75,2.64Zm-.22-6.25s-1.2-1.32-2.08-2.2a3.87,3.87,0,0,1-1.2-3.17c.32-1.76,3.17-2.09,3.94-.44a4.52,4.52,0,0,1,0,3.18A17.24,17.24,0,0,0,19.89,35.15Zm.55,13.59v-3.4h27v3.4Z"/><path class="cls-1" d="M8,84.68H5.8l-1-5.16h0l-1,5.16H1.6L.13,77.88H1.88l.85,5.37h0l1.06-5.37H5.76l1.07,5.37h0l.84-5.37H9.4Z"/><path class="cls-1" d="M16.51,84.68H14.67l-.38-1.32H11.8l-.38,1.32H9.63l2.22-6.8h2.43Zm-2.6-2.6-.84-3H13l-.86,3Z"/><path class="cls-1" d="M20.34,84.68H18.59V79.24H16.73V77.88h5.45v1.36H20.34Z"/><path class="cls-1" d="M27.85,84.68h-5v-6.8h4.9v1.33H24.6v1.37h2.95v1.26H24.6v1.48h3.25Z"/><path class="cls-1" d="M34.35,84.68H32.63v-1c0-1-.17-1.17-1.29-1.17h-.92v2.13H28.71v-6.8H32c1.92,0,2.33.56,2.33,2V80c0,1.06-.26,1.59-1,1.74v0c.82.15,1,.47,1,1.76Zm-2.72-3.4c.79,0,1-.19,1-1v-.21c0-.78-.21-.92-1-.92h-1.2v2.09Z"/><path class="cls-1" d="M37.1,84.68H35.39v-6.8h3c2.09,0,2.63.42,2.63,2.27v.41c0,1.87-.61,2.27-2.55,2.27H37.1Zm1.13-3.18c.87,0,1-.22,1-.92v-.45c0-.75-.17-.94-1-.94H37.1V81.5Z"/><path class="cls-1" d="M47.47,84.68H45.76v-1c0-1-.18-1.17-1.3-1.17h-.92v2.13H41.83v-6.8h3.3c1.92,0,2.33.56,2.33,2V80c0,1.06-.26,1.59-1,1.74v0c.81.15,1,.47,1,1.76Zm-2.72-3.4c.8,0,1-.19,1-1v-.21c0-.78-.2-.92-1-.92h-1.2v2.09Z"/><path class="cls-1" d="M51.41,84.76c-2.44,0-3-.71-3-3v-1c0-2.26.59-3,3-3h.23c2.43,0,3,.71,3,3v1c0,2.26-.59,3-3,3Zm.2-1.38c1,0,1.28-.3,1.28-1.62v-1c0-1.32-.25-1.62-1.28-1.62h-.17c-1,0-1.28.3-1.28,1.62v1c0,1.32.25,1.62,1.28,1.62Z"/><path class="cls-1" d="M58.54,84.76c-2.44,0-3-.71-3-3v-1c0-2.26.59-3,3-3h.23c2.43,0,3,.71,3,3v1c0,2.26-.59,3-3,3Zm.2-1.38c1,0,1.28-.3,1.28-1.62v-1c0-1.32-.25-1.62-1.28-1.62h-.17c-1,0-1.28.3-1.28,1.62v1c0,1.32.25,1.62,1.28,1.62Z"/><path class="cls-1" d="M64.51,84.68H62.77v-6.8h4.7v1.37h-3v1.66h2.77v1.31H64.51Z"/></svg>