<?xml version="1.0" encoding="utf-8"?>
<!-- Generator: Adobe Illustrator 22.1.0, SVG Export Plug-In . SVG Version: 6.00 Build 0)  -->
<svg height="85px" version="1.1" id="Layer_1" xmlns="http://www.w3.org/2000/svg" xmlns:xlink="http://www.w3.org/1999/xlink" x="0px" y="0px"
	 viewBox="0 0 90.8 96.8" style="enable-background:new 0 0 90.8 96.8;" xml:space="preserve">
<style type="text/css">
	.st0{enable-background:new    ;}
	.st1{fill:#1D1D1B;}
	.st2{fill:#05171D;}
</style>
<title>water_repellent</title>
<g id="Lager_1">
	<g>
		<g class="st0">
			<path class="st1" d="M8,84.4H5.8l-1-5.2h0l-1,5.2H1.6l-1.5-6.8h1.7L2.7,83h0l1.1-5.4h1.9L6.8,83h0l0.8-5.4h1.7L8,84.4z"/>
		</g>
		<g class="st0">
			<path class="st1" d="M16.1,84.4h-1.8l-0.4-1.3h-2.5L11,84.4H9.2l2.2-6.8h2.4L16.1,84.4z M13.5,81.8l-0.8-2.9h0l-0.9,2.9H13.5z"/>
		</g>
		<g class="st0">
			<path class="st1" d="M19.2,84.4h-1.7V79h-1.9v-1.4H21V79h-1.8V84.4z"/>
			<path class="st1" d="M26.7,84.4h-5v-6.8h4.9V79h-3.2v1.4h2.9v1.3h-2.9v1.5h3.3V84.4z"/>
			<path class="st1" d="M33.2,84.4h-1.7v-1c0-1-0.2-1.2-1.3-1.2h-0.9v2.1h-1.7v-6.8h3.3c1.9,0,2.3,0.6,2.3,2v0.2
				c0,1.1-0.3,1.6-1,1.7v0c0.8,0.1,1,0.5,1,1.8V84.4z M30.5,81c0.8,0,1-0.2,1-1v-0.2c0-0.8-0.2-0.9-1-0.9h-1.2V81H30.5z"/>
		</g>
		<g class="st0">
			<path class="st1" d="M42.6,84.4h-1.7v-1c0-1-0.2-1.2-1.3-1.2h-0.9v2.1H37v-6.8h3.3c1.9,0,2.3,0.6,2.3,2v0.2c0,1.1-0.3,1.6-1,1.7
				v0c0.8,0.1,1,0.5,1,1.8V84.4z M39.9,81c0.8,0,1-0.2,1-1v-0.2c0-0.8-0.2-0.9-1-0.9h-1.2V81H39.9z"/>
			<path class="st1" d="M48.6,84.4h-5v-6.8h4.9V79h-3.2v1.4h2.9v1.3h-2.9v1.5h3.3V84.4z"/>
			<path class="st1" d="M51.2,84.4h-1.7v-6.8h2.9c2.1,0,2.6,0.4,2.6,2.3v0.4c0,1.9-0.6,2.3-2.5,2.3h-1.3V84.4z M52.3,81.3
				c0.9,0,1-0.2,1-0.9v-0.5c0-0.7-0.2-0.9-1-0.9h-1.1v2.3H52.3z"/>
			<path class="st1" d="M60.9,84.4h-5v-6.8h4.9V79h-3.2v1.4h2.9v1.3h-2.9v1.5h3.3V84.4z"/>
			<path class="st1" d="M66.3,84.4h-4.5v-6.8h1.7v5.4h2.7V84.4z"/>
			<path class="st1" d="M71.4,84.4H67v-6.8h1.7v5.4h2.7V84.4z"/>
			<path class="st1" d="M77.1,84.4h-5v-6.8H77V79h-3.2v1.4h2.9v1.3h-2.9v1.5h3.3V84.4z"/>
			<path class="st1" d="M84.5,84.4h-2.5l-2.4-5.3h0l0,5.3H78v-6.8h2.6l2.3,5.3h0l-0.1-5.3h1.6V84.4z"/>
			<path class="st1" d="M88.7,84.4H87V79h-1.9v-1.4h5.5V79h-1.8V84.4z"/>
		</g>
	</g>
	<path class="st2" d="M18.7,47.9V17.9L44.9,2.9l26.2,14.9v30l-26.2,15L18.7,47.9z M44.9,0.2L16.4,16.5v32.7l28.5,16.3l28.5-16.3
		V16.5L44.9,0.2z"/>
	<path class="st2" d="M44.7,18.8c-1.2,2-2.7,4.7-4,7c-3.2,5.9-2.1,9.6-1.5,10.9c0.9,1.8,2.8,2.9,5.4,2.9s5.6-1.3,6.1-4.1
		c0.8-3.7-0.4-6.9-2.5-10.4c-0.5-1-1.1-1.9-1.5-2.7C45.9,20.9,45.2,19.8,44.7,18.8 M44.6,43L44.6,43c-3.5,0.2-6.8-1.8-8.4-4.9
		c-1-2.3-1.3-4.8-0.8-7.3c0.4-2.3,1.2-4.5,2.4-6.5c2.2-4,5.6-9.7,5.7-9.7l1.8-2.9l1.3,3.2c0.4,1,1.8,3.3,3.3,5.9
		c0.5,0.9,1,1.9,1.6,2.7c2.1,3.6,3.8,7.6,2.8,12.7C53,40.3,49,43.1,44.6,43"/>
	<path class="st2" d="M57.3,42c0,0,2-0.7,3.4-1.2c1.4-0.4,2.4-1.4,3-2.7c0.5-2-2.3-3.9-3.9-2.6c-1,0.9-1.6,2.1-1.8,3.4
		C57.7,40.3,57.5,41.6,57.3,42"/>
	<path class="st2" d="M31.2,41.4c0,0-2.1,0.1-3.5,0.2c-1.4,0.1-2.7-0.4-3.7-1.3c-1.3-1.6,0.5-4.5,2.6-3.9c1.2,0.4,2.2,1.3,2.9,2.4
		C30.3,39.9,30.9,40.9,31.2,41.4"/>
	<path class="st2" d="M31,35.1c0,0-1.2-1.3-2.1-2.2c-0.9-0.8-1.3-2-1.2-3.1c0.3-1.8,3.2-2.1,3.9-0.4c0.4,1,0.4,2.1,0,3.2
		C31.4,33.7,31.1,34.6,31,35.1"/>
	<rect x="32.8" y="45.2" class="st2" width="3.5" height="3.4"/>
	<rect x="38.1" y="45.2" class="st2" width="3.5" height="3.4"/>
	<rect x="43.5" y="45.2" class="st2" width="3.5" height="3.4"/>
	<rect x="48.9" y="45.2" class="st2" width="3.5" height="3.4"/>
	<rect x="54.2" y="45.2" class="st2" width="3.5" height="3.4"/>
</g>
</svg>
