<?xml version="1.0" encoding="utf-8"?>
<!-- Generator: Adobe Illustrator 22.1.0, SVG Export Plug-In . SVG Version: 6.00 Build 0)  -->
<svg height="85px" version="1.1" id="Layer_1" xmlns="http://www.w3.org/2000/svg" xmlns:xlink="http://www.w3.org/1999/xlink" x="0px" y="0px"
	 viewBox="0 0 69.1 96.6" style="enable-background:new 0 0 69.1 96.6;" xml:space="preserve">
<style type="text/css">
	.st0{fill:#1A1A18;}
	.st1{enable-background:new    ;}
</style>
<title>wind_proof</title>
<g id="Lager_1">
	<path class="st0" d="M8.3,47.9l26,15l26-15V17.9l-26-15l-26,15V47.9z M34.3,65.6L6,49.2V16.6L34.3,0.2l28.3,16.3v32.7L34.3,65.6z"
		/>
	<rect x="42.6" y="19" class="st0" width="3.4" height="24.4"/>
	<path class="st0" d="M38.4,21.9H26.8c-0.7,0.1-1.4-0.2-2-0.6c-0.5-0.6-0.7-1.4-0.6-2.2l-3.4-0.3c-0.1,1.8,0.4,3.5,1.5,4.9
		c1.1,1.2,2.8,1.9,4.5,1.8h8.1L32,28.9l-2-1.6l0.2,7.2l7-1.6L34.7,31l5-6.2c0.5-0.5,0.6-1.3,0.3-1.9C39.7,22.3,39.1,21.9,38.4,21.9"
		/>
	<path class="st0" d="M38.4,37.3H26.8c-0.7,0.1-1.4-0.2-2-0.7c-0.5-0.6-0.7-1.4-0.6-2.2L20.8,34c-0.1,1.8,0.4,3.5,1.5,4.9
		c1.1,1.2,2.8,1.9,4.5,1.8h8.1L32,44.1l-2-1.5l0.2,7.2l7-1.6l-2.4-1.8l5-6.2c0.6-0.8,0.4-1.9-0.3-2.5C39.2,37.4,38.8,37.3,38.4,37.3
		"/>
	<g class="st1">
		<path class="st0" d="M12.3,84.5h-2.1l-1-5.2h0l-1,5.2H5.9l-1.5-6.8h1.7L7.1,83h0l1.1-5.4h1.9l1.1,5.4h0l0.8-5.4h1.7L12.3,84.5z"/>
		<path class="st0" d="M16.2,84.5h-1.7v-6.8h1.7V84.5z"/>
		<path class="st0" d="M23.8,84.5h-2.5l-2.4-5.3h0l0,5.3h-1.6v-6.8h2.6l2.3,5.3h0l-0.1-5.3h1.6V84.5z"/>
		<path class="st0" d="M31,81.7c0,2.3-0.5,2.8-3.2,2.8h-3v-6.8h3c2.6,0,3.2,0.4,3.2,2.8V81.7z M27.8,83.1c1.3,0,1.5-0.3,1.5-1.6
			v-0.9c0-1.3-0.2-1.5-1.5-1.5h-1.2v4.1H27.8z"/>
		<path class="st0" d="M33.7,84.5H32v-6.8H35c2.1,0,2.6,0.4,2.6,2.3v0.4c0,1.9-0.6,2.3-2.5,2.3h-1.3V84.5z M34.9,81.3
			c0.9,0,1-0.2,1-0.9v-0.5c0-0.7-0.2-0.9-1-0.9h-1.1v2.3H34.9z"/>
		<path class="st0" d="M44.1,84.5h-1.7v-1c0-1-0.2-1.2-1.3-1.2h-0.9v2.1h-1.7v-6.8h3.3c1.9,0,2.3,0.6,2.3,2v0.2c0,1.1-0.3,1.6-1,1.7
			v0c0.8,0.1,1,0.5,1,1.8V84.5z M41.4,81.1c0.8,0,1-0.2,1-1v-0.2c0-0.8-0.2-0.9-1-0.9h-1.2v2.1H41.4z"/>
		<path class="st0" d="M48,84.5c-2.4,0-3-0.7-3-3v-1c0-2.3,0.6-3,3-3h0.2c2.4,0,3,0.7,3,3v1c0,2.3-0.6,3-3,3H48z M48.2,83.2
			c1,0,1.3-0.3,1.3-1.6v-1c0-1.3-0.2-1.6-1.3-1.6h-0.2c-1,0-1.3,0.3-1.3,1.6v1c0,1.3,0.2,1.6,1.3,1.6H48.2z"/>
		<path class="st0" d="M55.2,84.5c-2.4,0-3-0.7-3-3v-1c0-2.3,0.6-3,3-3h0.2c2.4,0,3,0.7,3,3v1c0,2.3-0.6,3-3,3H55.2z M55.4,83.2
			c1,0,1.3-0.3,1.3-1.6v-1c0-1.3-0.2-1.6-1.3-1.6h-0.2c-1,0-1.3,0.3-1.3,1.6v1c0,1.3,0.2,1.6,1.3,1.6H55.4z"/>
		<path class="st0" d="M61.1,84.5h-1.7v-6.8h4.7V79h-3v1.7h2.8V82h-2.8V84.5z"/>
	</g>
</g>
</svg>
