<svg height="85px" xmlns="http://www.w3.org/2000/svg" viewBox="0 0 58.92 96.67"><defs><style>.cls-1{fill:#1d1d1b;}.cls-2{fill:#000100;}</style></defs><title>WIND_protective</title><g id="Lager_1" data-name="Lager 1"><path class="cls-1" d="M27.76,84.59H25.61l-1-5.16h0l-1,5.16H21.4l-1.47-6.8h1.75l.85,5.37h0l1.06-5.37h1.94l1.07,5.37h0l.84-5.37h1.7Z" transform="translate(-5.28 0)"/><path class="cls-1" d="M31.64,84.59H29.89v-6.8h1.75Z" transform="translate(-5.28 0)"/><path class="cls-1" d="M39.22,84.59H36.71l-2.36-5.3H34.3l.05,5.3H32.74v-6.8h2.57l2.32,5.27h0l-.08-5.27h1.62Z" transform="translate(-5.28 0)"/><path class="cls-1" d="M46.5,81.77c0,2.34-.46,2.82-3.19,2.82h-3v-6.8h3c2.59,0,3.19.42,3.19,2.76Zm-3.26,1.46c1.27,0,1.5-.26,1.5-1.61v-1c0-1.3-.23-1.55-1.5-1.55H42.07v4.11Z" transform="translate(-5.28 0)"/><path class="cls-1" d="M7,96.59H5.28v-6.8h3c2.09,0,2.63.42,2.63,2.27v.41c0,1.87-.61,2.27-2.55,2.27H7Zm1.13-3.18c.87,0,1-.22,1-.92V92c0-.75-.17-.94-1-.94H7v2.31Z" transform="translate(-5.28 0)"/><path class="cls-1" d="M17.37,96.59H15.65v-1c0-1-.18-1.17-1.3-1.17h-.92v2.13H11.72v-6.8H15c1.93,0,2.34.56,2.34,2V92c0,1.06-.26,1.59-1,1.74v0c.82.15,1,.47,1,1.76Zm-2.73-3.4c.8,0,1-.19,1-1V92c0-.78-.2-.92-1-.92h-1.2v2.09Z" transform="translate(-5.28 0)"/><path class="cls-1" d="M21.3,96.67c-2.44,0-3-.71-3-3v-1c0-2.26.59-3,3-3h.23c2.44,0,3,.71,3,3v1c0,2.26-.59,3-3,3Zm.2-1.38c1,0,1.28-.3,1.28-1.62v-1c0-1.32-.25-1.62-1.28-1.62h-.17c-1,0-1.28.3-1.28,1.62v1c0,1.32.25,1.62,1.28,1.62Z" transform="translate(-5.28 0)"/><path class="cls-1" d="M28.71,96.59H27V91.15H25.1V89.79h5.46v1.36H28.71Z" transform="translate(-5.28 0)"/><path class="cls-1" d="M36.23,96.59h-5v-6.8h4.9v1.33H33v1.37h3v1.26H33v1.48h3.26Z" transform="translate(-5.28 0)"/><path class="cls-1" d="M39.89,96.67c-2.35,0-2.94-.62-2.94-3v-1c0-2.32.6-3,2.95-3h.19c2.23,0,2.79.54,2.79,2.19v.32H41.19V92c0-.6-.19-.93-1.11-.93H40c-1,0-1.23.29-1.23,1.61v1c0,1.4.26,1.62,1.21,1.62h.13c.84,0,1.16-.22,1.16-1v-.26h1.68v.41c0,1.71-.67,2.21-2.83,2.21Z" transform="translate(-5.28 0)"/><path class="cls-1" d="M47.05,96.59H45.3V91.15H43.44V89.79H48.9v1.36H47.05Z" transform="translate(-5.28 0)"/><path class="cls-1" d="M51.32,96.59H49.57v-6.8h1.75Z" transform="translate(-5.28 0)"/><path class="cls-1" d="M56.39,96.59H54.11L52,89.79h1.83l1.49,5.39h0l1.47-5.39h1.78Z" transform="translate(-5.28 0)"/><path class="cls-1" d="M64.2,96.59h-5v-6.8h4.9v1.33H60.94v1.37h3v1.26h-3v1.48H64.2Z" transform="translate(-5.28 0)"/><path class="cls-2" d="M33.72,65.49,5.34,49.12V16.37L33.72,0,62.1,16.37V49.12ZM7.63,47.81,33.72,62.76,59.81,47.7v-30L33.72,2.73l-26.09,15Z" transform="translate(-5.28 0)"/><rect class="cls-2" x="36.73" y="18.99" width="3.38" height="3.49"/><rect class="cls-2" x="36.73" y="24.34" width="3.38" height="3.49"/><rect class="cls-2" x="36.73" y="29.69" width="3.38" height="3.49"/><rect class="cls-2" x="36.73" y="35.04" width="3.38" height="3.49"/><rect class="cls-2" x="36.73" y="40.39" width="3.38" height="3.49"/><path class="cls-2" d="M26.19,25.32h8.08l-2.84,3.5-2.08-1.53.22,7.2,7-1.64L34.16,31l5-6.22a1.69,1.69,0,0,0,.22-1.86,1.87,1.87,0,0,0-1.53-1H26.19a2.68,2.68,0,0,1-2-.66,3.27,3.27,0,0,1-.65-2.18h0l-3.38-.33a6.73,6.73,0,0,0,1.52,4.81A5.77,5.77,0,0,0,26.19,25.32Z" transform="translate(-5.28 0)"/><path class="cls-2" d="M37.76,37.22H26.19a2.72,2.72,0,0,1-2-.65,3.3,3.3,0,0,1-.65-2.19h0l-3.38-.33a6.73,6.73,0,0,0,1.52,4.81,6,6,0,0,0,4.48,1.74h8.08l-2.84,3.5-2.08-1.53.22,7.2,7-1.63-2.4-1.86,5-6.22a1.69,1.69,0,0,0,.22-1.86A2.06,2.06,0,0,0,37.76,37.22Z" transform="translate(-5.28 0)"/></g></svg>
