<?xml version="1.0" encoding="utf-8"?>
<!-- Generator: Adobe Illustrator 22.1.0, SVG Export Plug-In . SVG Version: 6.00 Build 0)  -->
<svg height="85px" version="1.1" id="Layer_1" xmlns="http://www.w3.org/2000/svg" xmlns:xlink="http://www.w3.org/1999/xlink" x="0px" y="0px"
	 viewBox="0 0 56.6 96.7" style="enable-background:new 0 0 56.6 96.7;" xml:space="preserve">
<style type="text/css">
	.st0{enable-background:new    ;}
	.st1{fill:#1D1D1B;}
</style>
<title>wool</title>
<g id="Lager_1">
	<g class="st0">
		<path class="st1" d="M21.8,84.4h-2.1l-1-5.2h0l-1,5.2h-2.1L14,77.6h1.7l0.8,5.4h0l1.1-5.4h1.9l1.1,5.4h0l0.8-5.4h1.7L21.8,84.4z"
			/>
		<path class="st1" d="M26.8,84.5c-2.4,0-3-0.7-3-3v-1c0-2.3,0.6-3,3-3H27c2.4,0,3,0.7,3,3v1c0,2.3-0.6,3-3,3H26.8z M27,83.1
			c1,0,1.3-0.3,1.3-1.6v-1c0-1.3-0.2-1.6-1.3-1.6h-0.2c-1,0-1.3,0.3-1.3,1.6v1c0,1.3,0.2,1.6,1.3,1.6H27z"/>
		<path class="st1" d="M33.9,84.5c-2.4,0-3-0.7-3-3v-1c0-2.3,0.6-3,3-3h0.2c2.4,0,3,0.7,3,3v1c0,2.3-0.6,3-3,3H33.9z M34.1,83.1
			c1,0,1.3-0.3,1.3-1.6v-1c0-1.3-0.2-1.6-1.3-1.6H34c-1,0-1.3,0.3-1.3,1.6v1c0,1.3,0.2,1.6,1.3,1.6H34.1z"/>
		<path class="st1" d="M42.6,84.4h-4.5v-6.8h1.7v5.4h2.7V84.4z"/>
	</g>
	<path class="st1" d="M2.3,47.9V17.9l26-14.9l26,14.9v30l-26,15L2.3,47.9z M28.3,0.2L0,16.5v32.7l28.3,16.3l28.3-16.3V16.5L28.3,0.2
		z"/>
	<path class="st1" d="M36.5,45v-7l3.6,3.5C39.1,42.9,37.9,44.1,36.5,45 M16.7,41.7l4.3-4.5v8.4C19.3,44.6,17.8,43.3,16.7,41.7
		 M26.1,18.4L13.7,31.5C14.4,24.8,19.5,19.4,26.1,18.4 M42.8,30.8l-8.1-7.7l2.1-2.2C40.1,23.2,42.3,26.8,42.8,30.8 M30.3,27.7
		l2.3-2.3l10.2,9.8c-0.2,1.2-0.5,2.5-1.1,3.6L30.3,27.7z M30.4,32l3,2.9v11.7c-1,0.4-2,0.6-3,0.8V32z M24.2,34l3.2-3.2v16.7
		c-1.1-0.1-2.2-0.3-3.3-0.7h0.2V34H24.2z M30.4,18.3c1.3,0.2,2.5,0.5,3.7,1L15,38.9c-0.4-1-0.8-2.1-1-3.2L30.4,18.3z M28.3,15
		c-9.8,0-17.8,7.9-17.8,17.8s7.9,17.8,17.8,17.8c9.8,0,17.8-7.9,17.8-17.7C46.1,23,38.1,15,28.3,15C28.3,15,28.3,15,28.3,15L28.3,15
		"/>
</g>
</svg>
